<svg width="1750" height="1750" viewBox="0 0 1750 1750" fill="none" xmlns="http://www.w3.org/2000/svg">
<g filter="url(#filter0_i_747_1407)">
<circle cx="875" cy="875" r="875" fill="#E4DEF3"/>
</g>
<g filter="url(#filter1_d_747_1407)">
<mask id="path-2-inside-1_747_1407" fill="white">
<path d="M896.001 75C901.929 75 907.706 75.6451 913.266 76.8682C1005.6 81.1735 1096.58 101.453 1182.15 136.896C1279.21 177.1 1367.4 236.028 1441.69 310.314C1515.97 384.601 1574.9 472.792 1615.1 569.853C1651.38 657.423 1671.77 750.666 1675.41 845.219C1675.8 848.424 1676 851.688 1676 854.999V894.999C1676 898.164 1675.82 901.286 1675.46 904.354C1672.77 977.475 1660.08 1049.68 1637.88 1119H1424.14C1444.64 1072.95 1459.23 1024.57 1467.61 974.999H976.001V1466.6C1052.1 1453.74 1125.34 1426.26 1191.53 1385.33C1196.44 1382.29 1201.31 1379.19 1206.13 1376.01C1209.85 1373.56 1213.54 1371.07 1217.2 1368.54C1219.13 1367.2 1221.05 1365.86 1222.97 1364.5C1234.13 1356.58 1245.01 1348.31 1255.57 1339.67C1256.75 1338.71 1257.92 1337.75 1259.09 1336.78C1262.49 1333.96 1265.85 1331.11 1269.18 1328.22C1271.61 1326.11 1274.02 1323.99 1276.41 1321.84C1281.51 1317.27 1286.54 1312.61 1291.48 1307.87C1292.59 1306.8 1293.71 1305.72 1294.82 1304.64C1297.93 1301.6 1301.01 1298.54 1304.05 1295.44C1306.86 1292.58 1309.64 1289.69 1312.39 1286.78C1314.81 1284.21 1317.22 1281.61 1319.6 1279H1566.49C1565.39 1280.88 1564.28 1282.76 1563.16 1284.64C1563.01 1284.89 1562.86 1285.14 1562.71 1285.39C1562.33 1286.03 1561.95 1286.66 1561.57 1287.3C1561.29 1287.76 1561.01 1288.22 1560.73 1288.68C1560.43 1289.18 1560.13 1289.68 1559.83 1290.17C1559.62 1290.52 1559.41 1290.87 1559.19 1291.22C1558.85 1291.78 1558.51 1292.34 1558.17 1292.9C1557.89 1293.35 1557.62 1293.8 1557.34 1294.24C1557.04 1294.74 1556.73 1295.24 1556.42 1295.74C1556.2 1296.09 1555.99 1296.44 1555.77 1296.79C1555.4 1297.38 1555.04 1297.97 1554.67 1298.56C1554.42 1298.95 1554.17 1299.35 1553.92 1299.75C1553.67 1300.16 1553.41 1300.57 1553.15 1300.98C1552.84 1301.47 1552.53 1301.97 1552.22 1302.47C1551.97 1302.86 1551.72 1303.25 1551.47 1303.64C1549.81 1306.27 1548.12 1308.88 1546.43 1311.49C1546 1312.14 1545.58 1312.78 1545.16 1313.43C1544.99 1313.69 1544.81 1313.96 1544.64 1314.22C1544.26 1314.8 1543.88 1315.38 1543.5 1315.96C1543.23 1316.36 1542.96 1316.77 1542.69 1317.18C1542.34 1317.71 1541.98 1318.24 1541.63 1318.77C1541.39 1319.13 1541.15 1319.49 1540.91 1319.85C1540.53 1320.41 1540.16 1320.97 1539.79 1321.52C1539.58 1321.83 1539.37 1322.14 1539.16 1322.46C1538.72 1323.11 1538.28 1323.76 1537.84 1324.41C1537.68 1324.63 1537.53 1324.86 1537.38 1325.08C1537 1325.64 1536.62 1326.19 1536.24 1326.75C1535.95 1327.18 1535.66 1327.6 1535.36 1328.03C1535.04 1328.5 1534.72 1328.97 1534.4 1329.43C1534.12 1329.83 1533.84 1330.23 1533.57 1330.63C1533.32 1330.98 1533.08 1331.34 1532.83 1331.69C1532.45 1332.24 1532.07 1332.78 1531.69 1333.32C1530.44 1335.11 1529.19 1336.9 1527.92 1338.67C1527.74 1338.94 1527.55 1339.2 1527.36 1339.46C1526.98 1340 1526.59 1340.54 1526.21 1341.07C1525.86 1341.56 1525.51 1342.05 1525.15 1342.54C1524.87 1342.94 1524.58 1343.33 1524.29 1343.73C1523.96 1344.19 1523.62 1344.66 1523.29 1345.12C1523.05 1345.45 1522.81 1345.78 1522.57 1346.11C1522.19 1346.63 1521.81 1347.15 1521.43 1347.67C1521.15 1348.05 1520.86 1348.44 1520.58 1348.83C1520.19 1349.36 1519.8 1349.89 1519.41 1350.42C1519.15 1350.77 1518.89 1351.12 1518.63 1351.47C1518.28 1351.93 1517.94 1352.4 1517.59 1352.87C1517.22 1353.36 1516.85 1353.85 1516.48 1354.35C1516.22 1354.7 1515.95 1355.06 1515.68 1355.42C1515.42 1355.77 1515.15 1356.13 1514.88 1356.49C1514.48 1357.02 1514.08 1357.55 1513.68 1358.08C1512.85 1359.17 1512.02 1360.26 1511.18 1361.35C1510.37 1362.41 1509.55 1363.47 1508.74 1364.53C1508.46 1364.89 1508.18 1365.25 1507.9 1365.61C1507.56 1366.05 1507.21 1366.5 1506.86 1366.94C1506.54 1367.35 1506.23 1367.76 1505.91 1368.17C1505.58 1368.58 1505.25 1369 1504.92 1369.42C1504.56 1369.88 1504.19 1370.35 1503.82 1370.81C1503.56 1371.15 1503.29 1371.48 1503.03 1371.82C1502.62 1372.33 1502.22 1372.84 1501.82 1373.34C1501.52 1373.72 1501.22 1374.09 1500.93 1374.46C1500.58 1374.89 1500.23 1375.33 1499.89 1375.76C1499.55 1376.18 1499.21 1376.61 1498.86 1377.03C1498.48 1377.51 1498.09 1377.99 1497.7 1378.47C1497.44 1378.79 1497.18 1379.12 1496.92 1379.44C1496.42 1380.05 1495.92 1380.66 1495.42 1381.27C1495.24 1381.5 1495.05 1381.73 1494.86 1381.96C1494.59 1382.28 1494.33 1382.61 1494.06 1382.93C1493.53 1383.57 1493.01 1384.21 1492.48 1384.85C1491.9 1385.55 1491.33 1386.24 1490.76 1386.93C1490.66 1387.04 1490.57 1387.15 1490.48 1387.26C1489.22 1388.77 1487.96 1390.27 1486.69 1391.77C1486.29 1392.24 1485.89 1392.71 1485.49 1393.18C1485.17 1393.56 1484.85 1393.94 1484.53 1394.32C1484.2 1394.7 1483.88 1395.07 1483.56 1395.45C1483.16 1395.91 1482.77 1396.36 1482.38 1396.82C1482.05 1397.2 1481.72 1397.58 1481.4 1397.96C1481.07 1398.34 1480.74 1398.72 1480.41 1399.1C1480.01 1399.57 1479.6 1400.04 1479.19 1400.5C1478.86 1400.89 1478.53 1401.27 1478.19 1401.65C1477.87 1402.02 1477.55 1402.38 1477.23 1402.75C1476 1404.14 1474.78 1405.53 1473.54 1406.92C1473.32 1407.17 1473.1 1407.42 1472.88 1407.67C1471.46 1409.26 1470.03 1410.85 1468.59 1412.43C1468.35 1412.7 1468.1 1412.97 1467.85 1413.24C1467.35 1413.8 1466.84 1414.35 1466.33 1414.91C1466.16 1415.1 1465.99 1415.29 1465.81 1415.48C1465.24 1416.11 1464.66 1416.73 1464.08 1417.36C1463.91 1417.55 1463.73 1417.74 1463.55 1417.93C1463.02 1418.51 1462.49 1419.08 1461.96 1419.65C1461.68 1419.95 1461.4 1420.26 1461.11 1420.56C1460.69 1421.02 1460.26 1421.47 1459.83 1421.93C1459.49 1422.29 1459.16 1422.65 1458.82 1423.01C1458.4 1423.46 1457.97 1423.91 1457.55 1424.35C1457.28 1424.64 1457.01 1424.93 1456.73 1425.22C1456.21 1425.78 1455.67 1426.34 1455.14 1426.89C1454.91 1427.14 1454.68 1427.38 1454.44 1427.63C1453.99 1428.1 1453.53 1428.58 1453.08 1429.06C1451.82 1430.36 1450.56 1431.66 1449.3 1432.96C1448.77 1433.51 1448.23 1434.06 1447.69 1434.61C1447.37 1434.94 1447.05 1435.26 1446.73 1435.59C1446.32 1436.01 1445.9 1436.43 1445.48 1436.86C1445.11 1437.23 1444.74 1437.61 1444.37 1437.98C1443.97 1438.39 1443.56 1438.8 1443.16 1439.21C1442.89 1439.47 1442.63 1439.73 1442.37 1439.99C1441.82 1440.55 1441.26 1441.11 1440.7 1441.66C1440.42 1441.94 1440.14 1442.22 1439.86 1442.5C1439.47 1442.89 1439.08 1443.28 1438.68 1443.67C1438.28 1444.06 1437.89 1444.45 1437.49 1444.85C1437.02 1445.31 1436.54 1445.78 1436.07 1446.24C1435.83 1446.48 1435.59 1446.71 1435.35 1446.94C1434.79 1447.49 1434.23 1448.04 1433.67 1448.58C1433.42 1448.82 1433.18 1449.06 1432.93 1449.3C1432.49 1449.73 1432.04 1450.16 1431.59 1450.59C1431.23 1450.94 1430.87 1451.29 1430.51 1451.63C1429.01 1453.09 1427.49 1454.53 1425.97 1455.97C1425.65 1456.27 1425.33 1456.58 1425.01 1456.88C1424.55 1457.31 1424.09 1457.74 1423.64 1458.17C1423.3 1458.49 1422.96 1458.8 1422.63 1459.12C1422.14 1459.57 1421.65 1460.03 1421.16 1460.48C1420.82 1460.8 1420.48 1461.12 1420.13 1461.44C1419.75 1461.8 1419.36 1462.16 1418.98 1462.51C1418.61 1462.85 1418.24 1463.2 1417.87 1463.54C1417.36 1464.01 1416.85 1464.47 1416.34 1464.94C1416.07 1465.19 1415.8 1465.43 1415.54 1465.67C1415.01 1466.15 1414.49 1466.63 1413.96 1467.11C1413.63 1467.41 1413.3 1467.71 1412.97 1468.01C1412.59 1468.35 1412.22 1468.69 1411.84 1469.02C1411.4 1469.42 1410.96 1469.82 1410.51 1470.22C1410.07 1470.63 1409.62 1471.03 1409.17 1471.43C1408.84 1471.72 1408.52 1472.01 1408.2 1472.29C1406.56 1473.75 1404.92 1475.2 1403.28 1476.64C1402.12 1477.66 1400.96 1478.67 1399.79 1479.68C1399.3 1480.1 1398.81 1480.52 1398.32 1480.95C1398.12 1481.12 1397.92 1481.29 1397.72 1481.47C1397.15 1481.96 1396.57 1482.45 1396 1482.94C1395.6 1483.28 1395.2 1483.62 1394.81 1483.96C1394.41 1484.3 1394.01 1484.64 1393.62 1484.97C1393.24 1485.29 1392.87 1485.6 1392.5 1485.92C1392.03 1486.32 1391.56 1486.71 1391.09 1487.11C1390.66 1487.47 1390.23 1487.83 1389.79 1488.2C1389.5 1488.44 1389.2 1488.69 1388.91 1488.94C1388.41 1489.35 1387.91 1489.77 1387.41 1490.19C1387.03 1490.51 1386.64 1490.82 1386.26 1491.14C1385.81 1491.51 1385.36 1491.89 1384.91 1492.26C1382.42 1494.31 1379.92 1496.34 1377.41 1498.36C1377.18 1498.55 1376.96 1498.73 1376.73 1498.91C1376.1 1499.41 1375.47 1499.92 1374.85 1500.42C1374.54 1500.66 1374.24 1500.9 1373.93 1501.15C1373.47 1501.52 1373 1501.89 1372.54 1502.25C1372.09 1502.61 1371.63 1502.97 1371.18 1503.32C1370.73 1503.68 1370.28 1504.03 1369.83 1504.39C1369.45 1504.68 1369.08 1504.97 1368.7 1505.27C1368.28 1505.6 1367.85 1505.93 1367.43 1506.26C1366.99 1506.6 1366.55 1506.94 1366.12 1507.28C1365.6 1507.69 1365.07 1508.09 1364.55 1508.49C1364.25 1508.72 1363.95 1508.96 1363.65 1509.19C1363.13 1509.59 1362.61 1509.99 1362.08 1510.39C1361.72 1510.67 1361.35 1510.95 1360.98 1511.23C1360.5 1511.6 1360.01 1511.97 1359.52 1512.34C1359.15 1512.62 1358.78 1512.91 1358.4 1513.19C1356.69 1514.48 1354.97 1515.77 1353.25 1517.05C1352.96 1517.27 1352.66 1517.48 1352.37 1517.7C1351.79 1518.13 1351.2 1518.57 1350.61 1519C1350.32 1519.22 1350.03 1519.43 1349.73 1519.65C1349.12 1520.1 1348.51 1520.54 1347.9 1520.99C1347.63 1521.19 1347.36 1521.38 1347.09 1521.58C1346.51 1522 1345.93 1522.42 1345.35 1522.84C1345.01 1523.1 1344.66 1523.35 1344.31 1523.6C1343.74 1524.01 1343.17 1524.42 1342.6 1524.83C1342.3 1525.04 1342.01 1525.25 1341.71 1525.46C1341.14 1525.87 1340.57 1526.28 1340 1526.69C1339.66 1526.93 1339.33 1527.17 1338.99 1527.41C1338.39 1527.83 1337.8 1528.25 1337.2 1528.67C1336.9 1528.88 1336.6 1529.09 1336.31 1529.3C1335.8 1529.66 1335.3 1530.01 1334.79 1530.36C1334.39 1530.64 1334 1530.92 1333.6 1531.2C1332.94 1531.66 1332.27 1532.12 1331.61 1532.58C1331.12 1532.92 1330.62 1533.26 1330.13 1533.6C1329.53 1534.02 1328.93 1534.43 1328.33 1534.84C1327.94 1535.11 1327.55 1535.37 1327.16 1535.64C1326.66 1535.98 1326.15 1536.33 1325.65 1536.67C1325.27 1536.93 1324.9 1537.18 1324.52 1537.44C1323.98 1537.8 1323.43 1538.17 1322.89 1538.54C1322.54 1538.78 1322.18 1539.01 1321.83 1539.25C1321.24 1539.65 1320.65 1540.04 1320.07 1540.43C1319.81 1540.6 1319.56 1540.77 1319.3 1540.94C1318.65 1541.38 1317.99 1541.81 1317.33 1542.25C1317 1542.46 1316.67 1542.69 1316.34 1542.9C1315.72 1543.31 1315.09 1543.72 1314.47 1544.13C1314.26 1544.27 1314.04 1544.41 1313.82 1544.56C1313.59 1544.71 1313.36 1544.86 1313.13 1545.01C1313.11 1545.02 1313.08 1545.04 1313.06 1545.05C1307.65 1548.58 1302.2 1552.05 1296.7 1555.45C1178.61 1628.46 1043.71 1669.38 905.322 1674.46C902.264 1674.81 899.154 1675 896.001 1675H856.001C852.847 1675 849.736 1674.82 846.677 1674.46C751.625 1670.97 657.873 1650.56 569.853 1614.1C472.792 1573.9 384.601 1514.97 310.314 1440.68C236.028 1366.4 177.1 1278.21 136.896 1181.15C99.8784 1091.78 79.4013 996.499 76.3887 899.95C76.2958 898.347 76.25 896.731 76.2529 895.104C76.0846 888.408 76 881.706 76 874.999H76.3154L76.6299 774.998L532.976 776.431L532.6 896.43C532.461 940.612 496.531 976.317 452.349 976.179L284.505 975.651C292.015 1019.79 304.458 1063.05 321.672 1104.61C351.825 1177.4 396.02 1243.55 451.735 1299.26C507.45 1354.98 573.594 1399.17 646.39 1429.33C688.153 1446.63 731.638 1459.1 776.001 1466.6V75H896.001ZM976.001 774.999H1467.44C1459.92 730.983 1447.5 687.839 1430.33 646.39C1400.18 573.594 1355.98 507.45 1300.26 451.735C1244.55 396.02 1178.41 351.825 1105.61 321.672C1063.85 304.373 1020.36 291.892 976.001 284.394V774.999Z"/>
</mask>
<path d="M896.001 75C901.929 75 907.706 75.6451 913.266 76.8682C1005.6 81.1735 1096.58 101.453 1182.15 136.896C1279.21 177.1 1367.4 236.028 1441.69 310.314C1515.97 384.601 1574.9 472.792 1615.1 569.853C1651.38 657.423 1671.77 750.666 1675.41 845.219C1675.8 848.424 1676 851.688 1676 854.999V894.999C1676 898.164 1675.82 901.286 1675.46 904.354C1672.77 977.475 1660.08 1049.68 1637.88 1119H1424.14C1444.64 1072.95 1459.23 1024.57 1467.61 974.999H976.001V1466.6C1052.1 1453.74 1125.34 1426.26 1191.53 1385.33C1196.44 1382.29 1201.31 1379.19 1206.13 1376.01C1209.85 1373.56 1213.54 1371.07 1217.2 1368.54C1219.13 1367.2 1221.05 1365.86 1222.97 1364.5C1234.13 1356.58 1245.01 1348.31 1255.57 1339.67C1256.75 1338.71 1257.92 1337.75 1259.09 1336.78C1262.49 1333.96 1265.85 1331.11 1269.18 1328.22C1271.61 1326.11 1274.02 1323.99 1276.41 1321.84C1281.51 1317.27 1286.54 1312.61 1291.48 1307.87C1292.59 1306.8 1293.71 1305.72 1294.82 1304.64C1297.93 1301.6 1301.01 1298.54 1304.05 1295.44C1306.86 1292.58 1309.64 1289.69 1312.39 1286.78C1314.81 1284.21 1317.22 1281.61 1319.6 1279H1566.49C1565.39 1280.88 1564.28 1282.76 1563.16 1284.64C1563.01 1284.89 1562.86 1285.14 1562.71 1285.39C1562.33 1286.03 1561.95 1286.66 1561.57 1287.3C1561.29 1287.76 1561.01 1288.22 1560.73 1288.68C1560.43 1289.18 1560.13 1289.68 1559.83 1290.17C1559.62 1290.52 1559.41 1290.87 1559.19 1291.22C1558.85 1291.78 1558.51 1292.34 1558.17 1292.9C1557.89 1293.35 1557.62 1293.8 1557.34 1294.24C1557.04 1294.74 1556.73 1295.24 1556.42 1295.74C1556.2 1296.09 1555.99 1296.44 1555.77 1296.79C1555.4 1297.38 1555.04 1297.97 1554.67 1298.56C1554.42 1298.95 1554.17 1299.35 1553.92 1299.75C1553.67 1300.16 1553.41 1300.57 1553.15 1300.98C1552.84 1301.47 1552.53 1301.97 1552.22 1302.47C1551.97 1302.86 1551.72 1303.25 1551.47 1303.64C1549.81 1306.27 1548.12 1308.88 1546.43 1311.49C1546 1312.14 1545.58 1312.78 1545.16 1313.43C1544.99 1313.69 1544.81 1313.96 1544.64 1314.22C1544.26 1314.8 1543.88 1315.38 1543.5 1315.96C1543.23 1316.36 1542.96 1316.77 1542.69 1317.18C1542.34 1317.71 1541.98 1318.24 1541.63 1318.77C1541.39 1319.13 1541.15 1319.49 1540.91 1319.85C1540.53 1320.41 1540.16 1320.97 1539.79 1321.52C1539.58 1321.83 1539.37 1322.14 1539.16 1322.46C1538.72 1323.11 1538.28 1323.76 1537.84 1324.41C1537.68 1324.63 1537.53 1324.86 1537.38 1325.08C1537 1325.64 1536.62 1326.19 1536.24 1326.75C1535.95 1327.18 1535.66 1327.6 1535.36 1328.03C1535.04 1328.5 1534.72 1328.97 1534.4 1329.43C1534.12 1329.83 1533.84 1330.23 1533.57 1330.63C1533.32 1330.98 1533.08 1331.34 1532.83 1331.69C1532.45 1332.24 1532.07 1332.78 1531.69 1333.32C1530.44 1335.11 1529.19 1336.9 1527.92 1338.67C1527.74 1338.94 1527.55 1339.2 1527.36 1339.46C1526.98 1340 1526.59 1340.54 1526.21 1341.07C1525.86 1341.56 1525.51 1342.05 1525.15 1342.54C1524.87 1342.94 1524.58 1343.33 1524.29 1343.73C1523.96 1344.19 1523.62 1344.66 1523.29 1345.12C1523.05 1345.45 1522.81 1345.78 1522.57 1346.11C1522.19 1346.63 1521.81 1347.15 1521.43 1347.67C1521.15 1348.05 1520.86 1348.44 1520.58 1348.83C1520.19 1349.36 1519.8 1349.89 1519.41 1350.42C1519.15 1350.77 1518.89 1351.12 1518.63 1351.47C1518.28 1351.93 1517.94 1352.4 1517.59 1352.87C1517.22 1353.36 1516.85 1353.85 1516.48 1354.35C1516.22 1354.7 1515.95 1355.06 1515.68 1355.42C1515.42 1355.77 1515.15 1356.13 1514.88 1356.49C1514.48 1357.02 1514.08 1357.55 1513.68 1358.08C1512.85 1359.17 1512.02 1360.26 1511.18 1361.35C1510.37 1362.41 1509.55 1363.47 1508.74 1364.53C1508.46 1364.89 1508.18 1365.25 1507.9 1365.61C1507.56 1366.05 1507.21 1366.5 1506.86 1366.94C1506.54 1367.35 1506.23 1367.76 1505.91 1368.17C1505.58 1368.58 1505.25 1369 1504.92 1369.42C1504.56 1369.88 1504.19 1370.35 1503.82 1370.81C1503.56 1371.15 1503.29 1371.48 1503.03 1371.82C1502.62 1372.33 1502.22 1372.84 1501.82 1373.34C1501.52 1373.72 1501.22 1374.09 1500.93 1374.46C1500.58 1374.89 1500.23 1375.33 1499.89 1375.76C1499.55 1376.18 1499.21 1376.61 1498.86 1377.03C1498.48 1377.51 1498.09 1377.99 1497.7 1378.47C1497.44 1378.79 1497.18 1379.12 1496.92 1379.44C1496.42 1380.05 1495.92 1380.66 1495.42 1381.27C1495.24 1381.5 1495.05 1381.73 1494.86 1381.96C1494.59 1382.28 1494.33 1382.61 1494.06 1382.93C1493.53 1383.57 1493.01 1384.21 1492.48 1384.85C1491.9 1385.55 1491.33 1386.24 1490.76 1386.93C1490.66 1387.04 1490.57 1387.15 1490.48 1387.26C1489.22 1388.77 1487.96 1390.27 1486.69 1391.77C1486.29 1392.24 1485.89 1392.71 1485.49 1393.18C1485.17 1393.56 1484.85 1393.94 1484.53 1394.32C1484.2 1394.7 1483.88 1395.07 1483.56 1395.45C1483.16 1395.91 1482.77 1396.36 1482.38 1396.82C1482.05 1397.2 1481.72 1397.58 1481.4 1397.96C1481.07 1398.34 1480.74 1398.72 1480.41 1399.1C1480.01 1399.57 1479.6 1400.04 1479.19 1400.5C1478.86 1400.89 1478.53 1401.27 1478.19 1401.65C1477.87 1402.02 1477.55 1402.38 1477.23 1402.75C1476 1404.14 1474.78 1405.53 1473.54 1406.92C1473.32 1407.17 1473.1 1407.42 1472.88 1407.67C1471.46 1409.26 1470.03 1410.85 1468.59 1412.43C1468.35 1412.7 1468.1 1412.97 1467.85 1413.24C1467.35 1413.8 1466.84 1414.35 1466.33 1414.91C1466.16 1415.1 1465.99 1415.29 1465.81 1415.48C1465.24 1416.11 1464.66 1416.73 1464.08 1417.36C1463.91 1417.55 1463.73 1417.74 1463.55 1417.93C1463.02 1418.51 1462.49 1419.08 1461.96 1419.65C1461.68 1419.95 1461.4 1420.26 1461.11 1420.56C1460.69 1421.02 1460.26 1421.47 1459.83 1421.93C1459.49 1422.29 1459.16 1422.65 1458.82 1423.01C1458.4 1423.46 1457.97 1423.91 1457.55 1424.35C1457.28 1424.64 1457.01 1424.93 1456.73 1425.22C1456.21 1425.78 1455.67 1426.34 1455.14 1426.89C1454.91 1427.14 1454.68 1427.38 1454.44 1427.63C1453.99 1428.1 1453.53 1428.58 1453.08 1429.06C1451.82 1430.36 1450.56 1431.66 1449.3 1432.96C1448.77 1433.51 1448.23 1434.06 1447.69 1434.61C1447.37 1434.94 1447.05 1435.26 1446.73 1435.59C1446.32 1436.01 1445.9 1436.43 1445.48 1436.86C1445.11 1437.23 1444.74 1437.61 1444.37 1437.98C1443.97 1438.39 1443.56 1438.8 1443.16 1439.21C1442.89 1439.47 1442.63 1439.73 1442.37 1439.99C1441.82 1440.55 1441.26 1441.11 1440.7 1441.66C1440.42 1441.94 1440.14 1442.22 1439.86 1442.5C1439.47 1442.89 1439.08 1443.28 1438.68 1443.67C1438.28 1444.06 1437.89 1444.45 1437.49 1444.85C1437.02 1445.31 1436.54 1445.78 1436.07 1446.24C1435.83 1446.48 1435.59 1446.71 1435.35 1446.94C1434.79 1447.49 1434.23 1448.04 1433.67 1448.58C1433.42 1448.82 1433.18 1449.06 1432.93 1449.3C1432.49 1449.73 1432.04 1450.16 1431.59 1450.59C1431.23 1450.94 1430.87 1451.29 1430.51 1451.63C1429.01 1453.09 1427.49 1454.53 1425.97 1455.97C1425.65 1456.27 1425.33 1456.58 1425.01 1456.88C1424.55 1457.31 1424.09 1457.74 1423.64 1458.17C1423.3 1458.49 1422.96 1458.8 1422.63 1459.12C1422.14 1459.57 1421.65 1460.03 1421.16 1460.48C1420.82 1460.8 1420.48 1461.12 1420.13 1461.44C1419.75 1461.8 1419.36 1462.16 1418.98 1462.51C1418.61 1462.85 1418.24 1463.2 1417.87 1463.54C1417.36 1464.01 1416.85 1464.47 1416.34 1464.94C1416.07 1465.19 1415.8 1465.43 1415.54 1465.67C1415.01 1466.15 1414.49 1466.63 1413.96 1467.11C1413.63 1467.41 1413.3 1467.71 1412.97 1468.01C1412.59 1468.35 1412.22 1468.69 1411.84 1469.02C1411.4 1469.42 1410.96 1469.82 1410.51 1470.22C1410.07 1470.63 1409.62 1471.03 1409.17 1471.43C1408.84 1471.72 1408.52 1472.01 1408.2 1472.29C1406.56 1473.75 1404.92 1475.2 1403.28 1476.64C1402.12 1477.66 1400.96 1478.67 1399.79 1479.68C1399.3 1480.1 1398.81 1480.52 1398.32 1480.95C1398.12 1481.12 1397.92 1481.29 1397.72 1481.47C1397.15 1481.96 1396.57 1482.45 1396 1482.94C1395.6 1483.28 1395.2 1483.62 1394.81 1483.96C1394.41 1484.3 1394.01 1484.64 1393.62 1484.97C1393.24 1485.29 1392.87 1485.6 1392.5 1485.92C1392.03 1486.32 1391.56 1486.71 1391.09 1487.11C1390.66 1487.47 1390.23 1487.83 1389.79 1488.2C1389.5 1488.44 1389.2 1488.69 1388.91 1488.94C1388.41 1489.35 1387.91 1489.77 1387.41 1490.19C1387.03 1490.51 1386.64 1490.82 1386.26 1491.14C1385.81 1491.51 1385.36 1491.89 1384.91 1492.26C1382.42 1494.31 1379.92 1496.34 1377.41 1498.36C1377.18 1498.55 1376.96 1498.73 1376.73 1498.91C1376.1 1499.41 1375.47 1499.92 1374.85 1500.42C1374.54 1500.66 1374.24 1500.9 1373.93 1501.15C1373.47 1501.52 1373 1501.89 1372.54 1502.25C1372.09 1502.61 1371.63 1502.97 1371.18 1503.32C1370.73 1503.68 1370.28 1504.03 1369.83 1504.39C1369.45 1504.68 1369.08 1504.97 1368.7 1505.27C1368.28 1505.6 1367.85 1505.93 1367.43 1506.26C1366.99 1506.6 1366.55 1506.94 1366.12 1507.28C1365.6 1507.69 1365.07 1508.09 1364.55 1508.49C1364.25 1508.72 1363.95 1508.96 1363.65 1509.19C1363.13 1509.59 1362.61 1509.99 1362.08 1510.39C1361.72 1510.67 1361.35 1510.95 1360.98 1511.23C1360.5 1511.6 1360.01 1511.97 1359.52 1512.34C1359.15 1512.62 1358.78 1512.91 1358.4 1513.19C1356.69 1514.48 1354.97 1515.77 1353.25 1517.05C1352.96 1517.27 1352.66 1517.48 1352.37 1517.7C1351.79 1518.13 1351.2 1518.57 1350.61 1519C1350.32 1519.22 1350.03 1519.43 1349.73 1519.65C1349.12 1520.1 1348.51 1520.54 1347.9 1520.99C1347.63 1521.19 1347.36 1521.38 1347.09 1521.58C1346.51 1522 1345.93 1522.42 1345.35 1522.84C1345.01 1523.1 1344.66 1523.35 1344.31 1523.6C1343.74 1524.01 1343.17 1524.42 1342.6 1524.83C1342.3 1525.04 1342.01 1525.25 1341.71 1525.46C1341.14 1525.87 1340.57 1526.28 1340 1526.69C1339.66 1526.93 1339.33 1527.17 1338.99 1527.41C1338.39 1527.83 1337.8 1528.25 1337.2 1528.67C1336.9 1528.88 1336.6 1529.09 1336.31 1529.3C1335.8 1529.66 1335.3 1530.01 1334.79 1530.36C1334.39 1530.64 1334 1530.92 1333.6 1531.2C1332.94 1531.66 1332.27 1532.12 1331.61 1532.58C1331.12 1532.92 1330.62 1533.26 1330.13 1533.6C1329.53 1534.02 1328.93 1534.43 1328.33 1534.84C1327.94 1535.11 1327.55 1535.37 1327.16 1535.64C1326.66 1535.98 1326.15 1536.33 1325.65 1536.67C1325.27 1536.93 1324.9 1537.18 1324.52 1537.44C1323.98 1537.8 1323.43 1538.17 1322.89 1538.54C1322.54 1538.78 1322.18 1539.01 1321.83 1539.25C1321.24 1539.65 1320.65 1540.04 1320.07 1540.43C1319.81 1540.6 1319.56 1540.77 1319.3 1540.94C1318.65 1541.38 1317.99 1541.81 1317.33 1542.25C1317 1542.46 1316.67 1542.69 1316.34 1542.9C1315.72 1543.31 1315.09 1543.72 1314.47 1544.13C1314.26 1544.27 1314.04 1544.41 1313.82 1544.56C1313.59 1544.71 1313.36 1544.86 1313.13 1545.01C1313.11 1545.02 1313.08 1545.04 1313.06 1545.05C1307.65 1548.58 1302.2 1552.05 1296.7 1555.45C1178.61 1628.46 1043.71 1669.38 905.322 1674.46C902.264 1674.81 899.154 1675 896.001 1675H856.001C852.847 1675 849.736 1674.82 846.677 1674.46C751.625 1670.97 657.873 1650.56 569.853 1614.1C472.792 1573.9 384.601 1514.97 310.314 1440.68C236.028 1366.4 177.1 1278.21 136.896 1181.15C99.8784 1091.78 79.4013 996.499 76.3887 899.95C76.2958 898.347 76.25 896.731 76.2529 895.104C76.0846 888.408 76 881.706 76 874.999H76.3154L76.6299 774.998L532.976 776.431L532.6 896.43C532.461 940.612 496.531 976.317 452.349 976.179L284.505 975.651C292.015 1019.79 304.458 1063.05 321.672 1104.61C351.825 1177.4 396.02 1243.55 451.735 1299.26C507.45 1354.98 573.594 1399.17 646.39 1429.33C688.153 1446.63 731.638 1459.1 776.001 1466.6V75H896.001ZM976.001 774.999H1467.44C1459.92 730.983 1447.5 687.839 1430.33 646.39C1400.18 573.594 1355.98 507.45 1300.26 451.735C1244.55 396.02 1178.41 351.825 1105.61 321.672C1063.85 304.373 1020.36 291.892 976.001 284.394V774.999Z" fill="url(#paint0_linear_747_1407)"/>
<path d="M896.001 75V73V73V75ZM913.266 76.8682L912.836 78.8215L913.002 78.8581L913.172 78.866L913.266 76.8682ZM1182.15 136.896L1182.91 135.049V135.049L1182.15 136.896ZM1441.69 310.314L1443.1 308.9V308.9L1441.69 310.314ZM1615.1 569.853L1616.95 569.087V569.087L1615.1 569.853ZM1675.41 845.219L1673.41 845.296L1673.41 845.378L1673.42 845.461L1675.41 845.219ZM1676 854.999H1678V854.999H1676ZM1676 894.999H1678V894.999H1676ZM1675.46 904.354L1673.47 904.123L1673.46 904.202L1673.46 904.281L1675.46 904.354ZM1637.88 1119V1121H1639.34L1639.78 1119.61L1637.88 1119ZM1424.14 1119L1422.32 1118.19L1421.06 1121H1424.14V1119ZM1467.61 974.999L1469.58 975.332L1469.97 972.999H1467.61V974.999ZM976.001 974.999V972.999H974.001V974.999H976.001ZM976.001 1466.6H974.001V1468.97L976.334 1468.58L976.001 1466.6ZM1191.53 1385.33L1192.58 1387.04V1387.04L1191.53 1385.33ZM1206.13 1376.01L1207.23 1377.68V1377.68L1206.13 1376.01ZM1217.2 1368.54L1216.06 1366.89V1366.89L1217.2 1368.54ZM1222.97 1364.5L1224.13 1366.13V1366.13L1222.97 1364.5ZM1255.57 1339.67L1256.84 1341.22V1341.22L1255.57 1339.67ZM1259.09 1336.78L1257.81 1335.24V1335.24L1259.09 1336.78ZM1269.18 1328.22L1270.49 1329.73V1329.73L1269.18 1328.22ZM1276.41 1321.84L1275.07 1320.36V1320.36L1276.41 1321.84ZM1291.48 1307.87L1292.86 1309.31V1309.31L1291.48 1307.87ZM1294.82 1304.64L1293.42 1303.21V1303.21L1294.82 1304.64ZM1304.05 1295.44L1305.48 1296.84V1296.84L1304.05 1295.44ZM1312.39 1286.78L1310.93 1285.41V1285.41L1312.39 1286.78ZM1319.6 1279V1277H1318.71L1318.12 1277.65L1319.6 1279ZM1566.49 1279L1568.22 1280.01L1569.98 1277H1566.49V1279ZM1563.16 1284.64L1561.44 1283.62V1283.62L1563.16 1284.64ZM1562.71 1285.39L1564.43 1286.42V1286.42L1562.71 1285.39ZM1561.57 1287.3L1559.86 1286.27V1286.27L1561.57 1287.3ZM1560.73 1288.68L1562.45 1289.72V1289.72L1560.73 1288.68ZM1559.83 1290.17L1561.54 1291.21V1291.21L1559.83 1290.17ZM1559.19 1291.22L1557.48 1290.18V1290.18L1559.19 1291.22ZM1558.17 1292.9L1559.87 1293.95V1293.95L1558.17 1292.9ZM1557.34 1294.24L1555.64 1293.19V1293.19L1557.34 1294.24ZM1556.42 1295.74L1558.12 1296.79V1296.79L1556.42 1295.74ZM1555.77 1296.79L1554.07 1295.74V1295.74L1555.77 1296.79ZM1554.67 1298.56L1556.37 1299.61V1299.61L1554.67 1298.56ZM1553.92 1299.75L1552.23 1298.69V1298.69L1553.92 1299.75ZM1553.15 1300.98L1554.85 1302.04V1302.04L1553.15 1300.98ZM1552.22 1302.47L1550.53 1301.4V1301.4L1552.22 1302.47ZM1551.47 1303.64L1553.16 1304.71V1304.71L1551.47 1303.64ZM1546.43 1311.49L1544.75 1310.4V1310.4L1546.43 1311.49ZM1545.16 1313.43L1546.83 1314.53V1314.53L1545.16 1313.43ZM1544.64 1314.22L1542.97 1313.12V1313.12L1544.64 1314.22ZM1543.5 1315.96L1545.17 1317.06V1317.06L1543.5 1315.96ZM1542.69 1317.18L1541.02 1316.07V1316.07L1542.69 1317.18ZM1541.63 1318.77L1543.29 1319.88V1319.88L1541.63 1318.77ZM1540.91 1319.85L1539.24 1318.74V1318.74L1540.91 1319.85ZM1539.79 1321.52L1541.45 1322.64V1322.64L1539.79 1321.52ZM1539.16 1322.46L1537.5 1321.34V1321.34L1539.16 1322.46ZM1537.84 1324.41L1539.49 1325.53V1325.53L1537.84 1324.41ZM1537.38 1325.08L1535.72 1323.96V1323.96L1537.38 1325.08ZM1536.24 1326.75L1537.89 1327.88V1327.88L1536.24 1326.75ZM1535.36 1328.03L1533.71 1326.9V1326.9L1535.36 1328.03ZM1534.4 1329.43L1536.04 1330.57V1330.57L1534.4 1329.43ZM1533.57 1330.63L1531.92 1329.49V1329.49L1533.57 1330.63ZM1532.83 1331.69L1534.47 1332.84V1332.84L1532.83 1331.69ZM1531.69 1333.32L1530.05 1332.18V1332.18L1531.69 1333.32ZM1527.92 1338.67L1529.55 1339.83V1339.83L1527.92 1338.67ZM1527.36 1339.46L1525.73 1338.3V1338.3L1527.36 1339.46ZM1526.21 1341.07L1527.83 1342.24V1342.24L1526.21 1341.07ZM1525.15 1342.54L1523.53 1341.37V1341.37L1525.15 1342.54ZM1524.29 1343.73L1525.92 1344.9V1344.9L1524.29 1343.73ZM1523.29 1345.12L1521.67 1343.95V1343.95L1523.29 1345.12ZM1522.57 1346.11L1524.19 1347.28V1347.28L1522.57 1346.11ZM1521.43 1347.67L1519.82 1346.49V1346.49L1521.43 1347.67ZM1520.58 1348.83L1522.19 1350.01V1350.01L1520.58 1348.83ZM1519.41 1350.42L1517.8 1349.23V1349.23L1519.41 1350.42ZM1518.63 1351.47L1520.24 1352.66V1352.66L1518.63 1351.47ZM1517.59 1352.87L1515.98 1351.67V1351.67L1517.59 1352.87ZM1516.48 1354.35L1518.08 1355.55V1355.55L1516.48 1354.35ZM1515.68 1355.42L1514.09 1354.21V1354.21L1515.68 1355.42ZM1514.88 1356.49L1516.48 1357.69V1357.69L1514.88 1356.49ZM1513.68 1358.08L1512.08 1356.87V1356.87L1513.68 1358.08ZM1511.18 1361.35L1512.77 1362.56V1362.56L1511.18 1361.35ZM1508.74 1364.53L1507.15 1363.31V1363.31L1508.74 1364.53ZM1507.9 1365.61L1509.48 1366.83V1366.83L1507.9 1365.61ZM1506.86 1366.94L1505.29 1365.71V1365.71L1506.86 1366.94ZM1505.91 1368.17L1507.48 1369.4V1369.4L1505.91 1368.17ZM1504.92 1369.42L1503.35 1368.18V1368.18L1504.92 1369.42ZM1503.82 1370.81L1505.39 1372.05V1372.05L1503.82 1370.81ZM1503.03 1371.82L1501.46 1370.58V1370.58L1503.03 1371.82ZM1501.82 1373.34L1503.38 1374.59V1374.59L1501.82 1373.34ZM1500.93 1374.46L1499.36 1373.21V1373.21L1500.93 1374.46ZM1499.89 1375.76L1501.45 1377.01V1377.01L1499.89 1375.76ZM1498.86 1377.03L1497.31 1375.78V1375.78L1498.86 1377.03ZM1497.7 1378.47L1499.25 1379.73V1379.73L1497.7 1378.47ZM1496.92 1379.44L1495.36 1378.18V1378.18L1496.92 1379.44ZM1495.42 1381.27L1496.97 1382.53V1382.53L1495.42 1381.27ZM1494.86 1381.96L1493.31 1380.69V1380.69L1494.86 1381.96ZM1494.06 1382.93L1495.6 1384.2V1384.2L1494.06 1382.93ZM1492.48 1384.85L1490.94 1383.58V1383.58L1492.48 1384.85ZM1490.76 1386.93L1492.29 1388.21V1388.21L1490.76 1386.93ZM1490.48 1387.26L1488.95 1385.98V1385.98L1490.48 1387.26ZM1486.69 1391.77L1488.22 1393.06V1393.06L1486.69 1391.77ZM1485.49 1393.18L1483.97 1391.89V1391.89L1485.49 1393.18ZM1484.53 1394.32L1486.05 1395.62V1395.62L1484.53 1394.32ZM1483.56 1395.45L1482.04 1394.15V1394.15L1483.56 1395.45ZM1482.38 1396.82L1483.89 1398.13V1398.13L1482.38 1396.82ZM1481.4 1397.96L1479.88 1396.66V1396.66L1481.4 1397.96ZM1480.41 1399.1L1481.92 1400.41L1480.41 1399.1ZM1479.19 1400.5L1477.68 1399.19V1399.19L1479.19 1400.5ZM1478.19 1401.65L1476.69 1400.33V1400.33L1478.19 1401.65ZM1477.23 1402.75L1478.73 1404.07V1404.07L1477.23 1402.75ZM1473.54 1406.92L1472.05 1405.59V1405.59L1473.54 1406.92ZM1472.88 1407.67L1474.37 1409V1409L1472.88 1407.67ZM1468.59 1412.43L1467.11 1411.09V1411.09L1468.59 1412.43ZM1467.85 1413.24L1469.33 1414.58V1414.58L1467.85 1413.24ZM1466.33 1414.91L1464.86 1413.56V1413.56L1466.33 1414.91ZM1465.81 1415.48L1467.29 1416.83V1416.83L1465.81 1415.48ZM1464.08 1417.36L1462.61 1416.01V1416.01L1464.08 1417.36ZM1463.55 1417.93L1465.02 1419.29V1419.29L1463.55 1417.93ZM1461.96 1419.65L1460.49 1418.29V1418.29L1461.96 1419.65ZM1461.11 1420.56L1462.58 1421.93V1421.93L1461.11 1420.56ZM1459.83 1421.93L1458.37 1420.56V1420.56L1459.83 1421.93ZM1458.82 1423.01L1460.27 1424.38V1424.38L1458.82 1423.01ZM1457.55 1424.35L1456.1 1422.98V1422.98L1457.55 1424.35ZM1456.73 1425.22L1458.19 1426.6H1458.19L1456.73 1425.22ZM1455.14 1426.89L1453.7 1425.51V1425.51L1455.14 1426.89ZM1454.44 1427.63L1455.89 1429.01V1429.01L1454.44 1427.63ZM1453.08 1429.06L1451.63 1427.67V1427.67L1453.08 1429.06ZM1449.3 1432.96L1450.74 1434.35V1434.35L1449.3 1432.96ZM1447.69 1434.61L1446.26 1433.21V1433.21L1447.69 1434.61ZM1446.73 1435.59L1448.16 1436.99V1436.99L1446.73 1435.59ZM1445.48 1436.86L1444.06 1435.45V1435.45L1445.48 1436.86ZM1444.37 1437.98L1445.79 1439.39V1439.39L1444.37 1437.98ZM1443.16 1439.21L1441.74 1437.8V1437.8L1443.16 1439.21ZM1442.37 1439.99L1443.79 1441.4V1441.4L1442.37 1439.99ZM1440.7 1441.66L1439.29 1440.25V1440.25L1440.7 1441.66ZM1439.86 1442.5L1441.27 1443.91V1443.91L1439.86 1442.5ZM1438.68 1443.67L1437.27 1442.25V1442.25L1438.68 1443.67ZM1437.49 1444.85L1438.89 1446.27V1446.27L1437.49 1444.85ZM1436.07 1446.24L1434.67 1444.81V1444.81L1436.07 1446.24ZM1435.35 1446.94L1436.75 1448.37V1448.37L1435.35 1446.94ZM1433.67 1448.58L1432.27 1447.15V1447.15L1433.67 1448.58ZM1432.93 1449.3L1434.33 1450.73V1450.73L1432.93 1449.3ZM1431.59 1450.59L1430.2 1449.16V1449.16L1431.59 1450.59ZM1430.51 1451.63L1431.9 1453.08V1453.08L1430.51 1451.63ZM1425.97 1455.97L1424.6 1454.52V1454.52L1425.97 1455.97ZM1425.01 1456.88L1426.38 1458.34V1458.34L1425.01 1456.88ZM1423.64 1458.17L1422.27 1456.71V1456.71L1423.64 1458.17ZM1422.63 1459.12L1424 1460.58V1460.58L1422.63 1459.12ZM1421.16 1460.48L1419.8 1459.02V1459.02L1421.16 1460.48ZM1420.13 1461.44L1421.49 1462.91V1462.91L1420.13 1461.44ZM1418.98 1462.51L1417.62 1461.04V1461.04L1418.98 1462.51ZM1417.87 1463.54L1419.22 1465.01H1419.22L1417.87 1463.54ZM1416.34 1464.94L1414.99 1463.47V1463.47L1416.34 1464.94ZM1415.54 1465.67L1416.88 1467.15V1467.15L1415.54 1465.67ZM1413.96 1467.11L1412.62 1465.63V1465.63L1413.96 1467.11ZM1412.97 1468.01L1414.31 1469.49V1469.49L1412.97 1468.01ZM1411.84 1469.02L1410.5 1467.54V1467.54L1411.84 1469.02ZM1410.51 1470.22L1411.85 1471.71V1471.71L1410.51 1470.22ZM1409.17 1471.43L1407.83 1469.94V1469.94L1409.17 1471.43ZM1408.2 1472.29L1409.53 1473.79H1409.53L1408.2 1472.29ZM1403.28 1476.64L1401.96 1475.14V1475.14L1403.28 1476.64ZM1399.79 1479.68L1401.1 1481.19V1481.19L1399.79 1479.68ZM1398.32 1480.95L1397.02 1479.43V1479.43L1398.32 1480.95ZM1397.72 1481.47L1399.02 1482.98V1482.98L1397.72 1481.47ZM1396 1482.94L1394.7 1481.42V1481.42L1396 1482.94ZM1394.81 1483.96L1396.1 1485.48V1485.48L1394.81 1483.96ZM1393.62 1484.97L1392.32 1483.45V1483.45L1393.62 1484.97ZM1392.5 1485.92L1393.79 1487.45V1487.45L1392.5 1485.92ZM1391.09 1487.11L1389.8 1485.58V1485.58L1391.09 1487.11ZM1389.79 1488.2L1391.08 1489.73V1489.73L1389.79 1488.2ZM1388.91 1488.94L1387.62 1487.4V1487.4L1388.91 1488.94ZM1387.41 1490.19L1388.69 1491.73V1491.73L1387.41 1490.19ZM1386.26 1491.14L1384.99 1489.6V1489.6L1386.26 1491.14ZM1384.91 1492.26L1386.18 1493.8V1493.8L1384.91 1492.26ZM1377.41 1498.36L1376.16 1496.8V1496.8L1377.41 1498.36ZM1376.73 1498.91L1377.98 1500.47V1500.47L1376.73 1498.91ZM1374.85 1500.42L1373.6 1498.85V1498.85L1374.85 1500.42ZM1373.93 1501.15L1375.18 1502.71V1502.71L1373.93 1501.15ZM1372.54 1502.25L1373.78 1503.82L1372.54 1502.25ZM1371.18 1503.32L1369.95 1501.75V1501.75L1371.18 1503.32ZM1369.83 1504.39L1371.06 1505.96V1505.96L1369.83 1504.39ZM1368.7 1505.27L1367.47 1503.69V1503.69L1368.7 1505.27ZM1367.43 1506.26L1368.65 1507.84V1507.84L1367.43 1506.26ZM1366.12 1507.28L1364.89 1505.7V1505.7L1366.12 1507.28ZM1364.55 1508.49L1365.77 1510.08V1510.08L1364.55 1508.49ZM1363.65 1509.19L1362.43 1507.6V1507.6L1363.65 1509.19ZM1362.08 1510.39L1363.3 1511.97V1511.97L1362.08 1510.39ZM1360.98 1511.23L1359.77 1509.64V1509.64L1360.98 1511.23ZM1359.52 1512.34L1360.73 1513.93V1513.93L1359.52 1512.34ZM1358.4 1513.19L1357.2 1511.59V1511.59L1358.4 1513.19ZM1353.25 1517.05L1354.44 1518.65V1518.65L1353.25 1517.05ZM1352.37 1517.7L1351.18 1516.09V1516.09L1352.37 1517.7ZM1350.61 1519L1351.8 1520.61V1520.61L1350.61 1519ZM1349.73 1519.65L1348.55 1518.04V1518.04L1349.73 1519.65ZM1347.9 1520.99L1349.08 1522.61V1522.61L1347.9 1520.99ZM1347.09 1521.58L1345.92 1519.96V1519.96L1347.09 1521.58ZM1345.35 1522.84L1346.53 1524.46V1524.46L1345.35 1522.84ZM1344.31 1523.6L1343.14 1521.98V1521.98L1344.31 1523.6ZM1342.6 1524.83L1343.76 1526.46V1526.46L1342.6 1524.83ZM1341.71 1525.46L1340.55 1523.84V1523.84L1341.71 1525.46ZM1340 1526.69L1341.16 1528.32V1528.32L1340 1526.69ZM1338.99 1527.41L1337.83 1525.77V1525.77L1338.99 1527.41ZM1337.2 1528.67L1338.35 1530.31V1530.31L1337.2 1528.67ZM1336.31 1529.3L1335.16 1527.67V1527.67L1336.31 1529.3ZM1334.79 1530.36L1335.94 1532V1532L1334.79 1530.36ZM1333.6 1531.2L1332.45 1529.56V1529.56L1333.6 1531.2ZM1331.61 1532.58L1332.75 1534.23V1534.23L1331.61 1532.58ZM1330.13 1533.6L1328.99 1531.96V1531.96L1330.13 1533.6ZM1328.33 1534.84L1329.47 1536.49V1536.49L1328.33 1534.84ZM1327.16 1535.64L1326.03 1533.99V1533.99L1327.16 1535.64ZM1325.65 1536.67L1326.77 1538.33V1538.33L1325.65 1536.67ZM1324.52 1537.44L1323.4 1535.78V1535.78L1324.52 1537.44ZM1322.89 1538.54L1324.01 1540.2V1540.2L1322.89 1538.54ZM1321.83 1539.25L1320.71 1537.59V1537.59L1321.83 1539.25ZM1320.07 1540.43L1321.18 1542.09H1321.18L1320.07 1540.43ZM1319.3 1540.94L1318.19 1539.28V1539.28L1319.3 1540.94ZM1317.33 1542.25L1318.44 1543.91V1543.91L1317.33 1542.25ZM1316.34 1542.9L1315.24 1541.23V1541.23L1316.34 1542.9ZM1314.47 1544.13L1315.57 1545.8V1545.8L1314.47 1544.13ZM1313.82 1544.56L1312.73 1542.88V1542.88L1313.82 1544.56ZM1313.13 1545.01L1314.23 1546.68V1546.68L1313.13 1545.01ZM1313.06 1545.05L1311.98 1543.37L1311.97 1543.37L1311.97 1543.38L1313.06 1545.05ZM1296.7 1555.45L1297.75 1557.15V1557.15L1296.7 1555.45ZM905.322 1674.46L905.249 1672.46L905.17 1672.46L905.092 1672.47L905.322 1674.46ZM896.001 1675V1677V1677V1675ZM856.001 1675V1677V1677V1675ZM846.677 1674.46L846.907 1672.47L846.829 1672.46L846.75 1672.46L846.677 1674.46ZM569.853 1614.1L569.087 1615.95V1615.95L569.853 1614.1ZM310.314 1440.68L308.9 1442.1V1442.1L310.314 1440.68ZM136.896 1181.15L135.049 1181.91V1181.91L136.896 1181.15ZM76.3887 899.95L78.3877 899.888L78.3869 899.861L78.3853 899.835L76.3887 899.95ZM76.2529 895.104L78.2529 895.108L78.253 895.081L78.2523 895.054L76.2529 895.104ZM76 874.999V872.999H74V874.999H76ZM76.3154 874.999V876.999H78.3092L78.3154 875.005L76.3154 874.999ZM76.6299 774.998L76.6362 772.998L74.6362 772.992L74.6299 774.992L76.6299 774.998ZM532.976 776.431L534.976 776.437L534.982 774.437L532.982 774.431L532.976 776.431ZM532.6 896.43L534.6 896.436V896.436L532.6 896.43ZM452.349 976.179L452.342 978.179V978.179L452.349 976.179ZM284.505 975.651L284.511 973.651L282.135 973.644L282.533 975.987L284.505 975.651ZM321.672 1104.61L319.824 1105.37V1105.37L321.672 1104.61ZM451.735 1299.26L450.321 1300.68L451.735 1299.26ZM646.39 1429.33L645.624 1431.17V1431.17L646.39 1429.33ZM776.001 1466.6L775.668 1468.58L778.001 1468.97V1466.6H776.001ZM776.001 75V73H774.001V75H776.001ZM976.001 774.999H974.001V776.999H976.001V774.999ZM1467.44 774.999V776.999H1469.81L1469.41 774.662L1467.44 774.999ZM1430.33 646.39L1432.18 645.624V645.624L1430.33 646.39ZM1300.26 451.735L1301.68 450.321V450.321L1300.26 451.735ZM1105.61 321.672L1106.38 319.824V319.824L1105.61 321.672ZM976.001 284.394L976.334 282.422L974.001 282.027V284.394H976.001ZM896.001 75V77C901.783 77 907.416 77.6292 912.836 78.8215L913.266 76.8682L913.695 74.9149C907.995 73.661 902.074 73 896.001 73V75ZM913.266 76.8682L913.172 78.866C1005.27 83.1606 1096.03 103.389 1181.38 138.744L1182.15 136.896L1182.91 135.049C1097.13 99.5167 1005.92 79.1865 913.359 74.8703L913.266 76.8682ZM1182.15 136.896L1181.38 138.744C1278.2 178.847 1366.17 237.628 1440.27 311.729L1441.69 310.314L1443.1 308.9C1368.63 234.428 1280.22 175.353 1182.91 135.049L1182.15 136.896ZM1441.69 310.314L1440.27 311.729C1514.37 385.83 1573.15 473.8 1613.26 570.618L1615.1 569.853L1616.95 569.087C1576.65 471.784 1517.57 383.373 1443.1 308.9L1441.69 310.314ZM1615.1 569.853L1613.26 570.618C1649.44 657.969 1669.78 750.979 1673.41 845.296L1675.41 845.219L1677.4 845.142C1673.76 750.353 1653.31 656.877 1616.95 569.087L1615.1 569.853ZM1675.41 845.219L1673.42 845.461C1673.8 848.587 1674 851.77 1674 854.999H1676H1678C1678 851.606 1677.79 848.262 1677.39 844.977L1675.41 845.219ZM1676 854.999H1674V894.999H1676H1678V854.999H1676ZM1676 894.999H1674C1674 898.086 1673.82 901.131 1673.47 904.123L1675.46 904.354L1677.44 904.586C1677.81 901.441 1678 898.242 1678 894.999H1676ZM1675.46 904.354L1673.46 904.281C1670.78 977.219 1658.12 1049.25 1635.97 1118.39L1637.88 1119L1639.78 1119.61C1662.04 1050.12 1674.77 977.731 1677.46 904.428L1675.46 904.354ZM1637.88 1119V1117H1424.14V1119V1121H1637.88V1119ZM1424.14 1119L1425.97 1119.81C1446.54 1073.61 1461.17 1025.07 1469.58 975.332L1467.61 974.999L1465.63 974.666C1457.28 1024.07 1442.74 1072.29 1422.32 1118.19L1424.14 1119ZM1467.61 974.999V972.999H976.001V974.999V976.999H1467.61V974.999ZM976.001 974.999H974.001V1466.6H976.001H978.001V974.999H976.001ZM976.001 1466.6L976.334 1468.58C1052.69 1455.67 1126.17 1428.09 1192.58 1387.04L1191.53 1385.33L1190.47 1383.63C1124.5 1424.42 1051.52 1451.81 975.668 1464.63L976.001 1466.6ZM1191.53 1385.33L1192.58 1387.04C1197.51 1383.99 1202.39 1380.87 1207.23 1377.68L1206.13 1376.01L1205.03 1374.34C1200.22 1377.51 1195.37 1380.6 1190.47 1383.63L1191.53 1385.33ZM1206.13 1376.01L1207.23 1377.68C1210.96 1375.22 1214.66 1372.72 1218.33 1370.18L1217.2 1368.54L1216.06 1366.89C1212.41 1369.42 1208.73 1371.9 1205.03 1374.34L1206.13 1376.01ZM1217.2 1368.54L1218.33 1370.18C1220.27 1368.84 1222.2 1367.49 1224.13 1366.13L1222.97 1364.5L1221.81 1362.87C1219.9 1364.22 1217.99 1365.56 1216.06 1366.89L1217.2 1368.54ZM1222.97 1364.5L1224.13 1366.13C1235.33 1358.19 1246.24 1349.88 1256.84 1341.22L1255.57 1339.67L1254.31 1338.12C1243.78 1346.73 1232.94 1354.98 1221.81 1362.87L1222.97 1364.5ZM1255.57 1339.67L1256.84 1341.22C1258.02 1340.26 1259.2 1339.29 1260.37 1338.32L1259.09 1336.78L1257.81 1335.24C1256.65 1336.21 1255.48 1337.17 1254.31 1338.12L1255.57 1339.67ZM1259.09 1336.78L1260.37 1338.32C1263.77 1335.49 1267.15 1332.63 1270.49 1329.73L1269.18 1328.22L1267.87 1326.71C1264.55 1329.59 1261.2 1332.43 1257.81 1335.24L1259.09 1336.78ZM1269.18 1328.22L1270.49 1329.73C1272.93 1327.62 1275.34 1325.48 1277.74 1323.33L1276.41 1321.84L1275.07 1320.36C1272.69 1322.49 1270.29 1324.61 1267.87 1326.71L1269.18 1328.22ZM1276.41 1321.84L1277.74 1323.33C1282.86 1318.75 1287.9 1314.07 1292.86 1309.31L1291.48 1307.87L1290.09 1306.43C1285.17 1311.15 1280.16 1315.8 1275.07 1320.36L1276.41 1321.84ZM1291.48 1307.87L1292.86 1309.31C1293.98 1308.24 1295.1 1307.16 1296.21 1306.07L1294.82 1304.64L1293.42 1303.21C1292.31 1304.28 1291.21 1305.36 1290.09 1306.43L1291.48 1307.87ZM1294.82 1304.64L1296.21 1306.07C1299.33 1303.03 1302.42 1299.95 1305.48 1296.84L1304.05 1295.44L1302.62 1294.04C1299.59 1297.13 1296.52 1300.18 1293.42 1303.21L1294.82 1304.64ZM1304.05 1295.44L1305.48 1296.84C1308.3 1293.97 1311.08 1291.08 1313.84 1288.15L1312.39 1286.78L1310.93 1285.41C1308.19 1288.31 1305.42 1291.19 1302.62 1294.04L1304.05 1295.44ZM1312.39 1286.78L1313.84 1288.15C1316.28 1285.57 1318.69 1282.97 1321.08 1280.35L1319.6 1279L1318.12 1277.65C1315.75 1280.26 1313.35 1282.84 1310.93 1285.41L1312.39 1286.78ZM1319.6 1279V1281H1566.49V1279V1277H1319.6V1279ZM1566.49 1279L1564.77 1277.99C1563.67 1279.87 1562.56 1281.74 1561.44 1283.62L1563.16 1284.64L1564.88 1285.66C1566 1283.78 1567.11 1281.9 1568.22 1280.01L1566.49 1279ZM1563.16 1284.64L1561.44 1283.62C1561.29 1283.87 1561.15 1284.11 1561 1284.36L1562.71 1285.39L1564.43 1286.42C1564.58 1286.17 1564.73 1285.91 1564.88 1285.66L1563.16 1284.64ZM1562.71 1285.39L1561 1284.36C1560.62 1285 1560.24 1285.63 1559.86 1286.27L1561.57 1287.3L1563.28 1288.33C1563.67 1287.69 1564.05 1287.05 1564.43 1286.42L1562.71 1285.39ZM1561.57 1287.3L1559.86 1286.27C1559.58 1286.73 1559.3 1287.19 1559.02 1287.65L1560.73 1288.68L1562.45 1289.72C1562.72 1289.26 1563 1288.79 1563.28 1288.33L1561.57 1287.3ZM1560.73 1288.68L1559.02 1287.65C1558.72 1288.14 1558.42 1288.64 1558.12 1289.13L1559.83 1290.17L1561.54 1291.21C1561.84 1290.71 1562.14 1290.22 1562.45 1289.72L1560.73 1288.68ZM1559.83 1290.17L1558.12 1289.13C1557.91 1289.49 1557.7 1289.83 1557.48 1290.18L1559.19 1291.22L1560.9 1292.26C1561.11 1291.91 1561.33 1291.56 1561.54 1291.21L1559.83 1290.17ZM1559.19 1291.22L1557.48 1290.18C1557.14 1290.74 1556.8 1291.3 1556.46 1291.86L1558.17 1292.9L1559.87 1293.95C1560.22 1293.39 1560.56 1292.83 1560.9 1292.26L1559.19 1291.22ZM1558.17 1292.9L1556.46 1291.86C1556.19 1292.3 1555.92 1292.75 1555.64 1293.19L1557.34 1294.24L1559.05 1295.29C1559.32 1294.84 1559.6 1294.4 1559.87 1293.95L1558.17 1292.9ZM1557.34 1294.24L1555.64 1293.19C1555.33 1293.69 1555.03 1294.19 1554.72 1294.69L1556.42 1295.74L1558.12 1296.79C1558.43 1296.29 1558.74 1295.79 1559.05 1295.29L1557.34 1294.24ZM1556.42 1295.74L1554.72 1294.69C1554.5 1295.04 1554.29 1295.39 1554.07 1295.74L1555.77 1296.79L1557.47 1297.85C1557.69 1297.5 1557.9 1297.14 1558.12 1296.79L1556.42 1295.74ZM1555.77 1296.79L1554.07 1295.74C1553.7 1296.33 1553.34 1296.91 1552.97 1297.5L1554.67 1298.56L1556.37 1299.61C1556.73 1299.03 1557.1 1298.44 1557.47 1297.85L1555.77 1296.79ZM1554.67 1298.56L1552.97 1297.5C1552.73 1297.89 1552.48 1298.29 1552.23 1298.69L1553.92 1299.75L1555.62 1300.81C1555.87 1300.41 1556.12 1300.01 1556.37 1299.61L1554.67 1298.56ZM1553.92 1299.75L1552.23 1298.69C1551.97 1299.1 1551.72 1299.51 1551.46 1299.91L1553.15 1300.98L1554.85 1302.04C1555.1 1301.63 1555.36 1301.22 1555.62 1300.81L1553.92 1299.75ZM1553.15 1300.98L1551.46 1299.91C1551.15 1300.41 1550.84 1300.9 1550.53 1301.4L1552.22 1302.47L1553.91 1303.53C1554.22 1303.04 1554.53 1302.54 1554.85 1302.04L1553.15 1300.98ZM1552.22 1302.47L1550.53 1301.4C1550.28 1301.79 1550.03 1302.18 1549.78 1302.57L1551.47 1303.64L1553.16 1304.71C1553.41 1304.32 1553.66 1303.93 1553.91 1303.53L1552.22 1302.47ZM1551.47 1303.64L1549.78 1302.57C1548.12 1305.19 1546.44 1307.8 1544.75 1310.4L1546.43 1311.49L1548.1 1312.58C1549.8 1309.97 1551.49 1307.34 1553.16 1304.71L1551.47 1303.64ZM1546.43 1311.49L1544.75 1310.4C1544.33 1311.04 1543.91 1311.69 1543.49 1312.33L1545.16 1313.43L1546.83 1314.53C1547.26 1313.88 1547.68 1313.23 1548.1 1312.58L1546.43 1311.49ZM1545.16 1313.43L1543.49 1312.33C1543.31 1312.6 1543.15 1312.85 1542.97 1313.12L1544.64 1314.22L1546.31 1315.32C1546.48 1315.06 1546.66 1314.79 1546.83 1314.53L1545.16 1313.43ZM1544.64 1314.22L1542.97 1313.12C1542.59 1313.7 1542.21 1314.28 1541.83 1314.85L1543.5 1315.96L1545.17 1317.06C1545.55 1316.48 1545.93 1315.9 1546.31 1315.32L1544.64 1314.22ZM1543.5 1315.96L1541.83 1314.85C1541.56 1315.26 1541.29 1315.67 1541.02 1316.07L1542.69 1317.18L1544.36 1318.28C1544.63 1317.87 1544.9 1317.46 1545.17 1317.06L1543.5 1315.96ZM1542.69 1317.18L1541.02 1316.07C1540.67 1316.6 1540.32 1317.13 1539.96 1317.66L1541.63 1318.77L1543.29 1319.88C1543.65 1319.35 1544 1318.81 1544.36 1318.28L1542.69 1317.18ZM1541.63 1318.77L1539.96 1317.66C1539.72 1318.02 1539.48 1318.38 1539.24 1318.74L1540.91 1319.85L1542.57 1320.96C1542.81 1320.6 1543.05 1320.24 1543.29 1319.88L1541.63 1318.77ZM1540.91 1319.85L1539.24 1318.74C1538.87 1319.29 1538.5 1319.85 1538.13 1320.41L1539.79 1321.52L1541.45 1322.64C1541.82 1322.08 1542.2 1321.52 1542.57 1320.96L1540.91 1319.85ZM1539.79 1321.52L1538.13 1320.41C1537.92 1320.72 1537.71 1321.03 1537.5 1321.34L1539.16 1322.46L1540.82 1323.57C1541.03 1323.26 1541.24 1322.95 1541.45 1322.64L1539.79 1321.52ZM1539.16 1322.46L1537.5 1321.34C1537.06 1321.99 1536.62 1322.63 1536.18 1323.28L1537.84 1324.41L1539.49 1325.53C1539.93 1324.88 1540.37 1324.23 1540.82 1323.57L1539.16 1322.46ZM1537.84 1324.41L1536.18 1323.28C1536.02 1323.52 1535.88 1323.73 1535.72 1323.96L1537.38 1325.08L1539.03 1326.21C1539.18 1325.98 1539.34 1325.75 1539.49 1325.53L1537.84 1324.41ZM1537.38 1325.08L1535.72 1323.96C1535.35 1324.51 1534.97 1325.06 1534.59 1325.62L1536.24 1326.75L1537.89 1327.88C1538.27 1327.32 1538.65 1326.77 1539.03 1326.21L1537.38 1325.08ZM1536.24 1326.75L1534.59 1325.62C1534.3 1326.05 1534.01 1326.47 1533.71 1326.9L1535.36 1328.03L1537.01 1329.16C1537.3 1328.73 1537.6 1328.3 1537.89 1327.88L1536.24 1326.75ZM1535.36 1328.03L1533.71 1326.9C1533.39 1327.36 1533.07 1327.83 1532.75 1328.3L1534.4 1329.43L1536.04 1330.57C1536.36 1330.1 1536.69 1329.63 1537.01 1329.16L1535.36 1328.03ZM1534.4 1329.43L1532.75 1328.3C1532.47 1328.7 1532.2 1329.09 1531.92 1329.49L1533.57 1330.63L1535.21 1331.77C1535.49 1331.37 1535.77 1330.97 1536.04 1330.57L1534.4 1329.43ZM1533.57 1330.63L1531.92 1329.49C1531.68 1329.84 1531.43 1330.2 1531.19 1330.55L1532.83 1331.69L1534.47 1332.84C1534.72 1332.48 1534.97 1332.13 1535.21 1331.77L1533.57 1330.63ZM1532.83 1331.69L1531.19 1330.55C1530.81 1331.1 1530.43 1331.64 1530.05 1332.18L1531.69 1333.32L1533.33 1334.47C1533.71 1333.93 1534.09 1333.38 1534.47 1332.84L1532.83 1331.69ZM1531.69 1333.32L1530.05 1332.18C1528.81 1333.96 1527.55 1335.74 1526.29 1337.51L1527.92 1338.67L1529.55 1339.83C1530.82 1338.05 1532.08 1336.26 1533.33 1334.47L1531.69 1333.32ZM1527.92 1338.67L1526.29 1337.51C1526.11 1337.77 1525.92 1338.03 1525.73 1338.3L1527.36 1339.46L1528.99 1340.62C1529.17 1340.36 1529.36 1340.1 1529.55 1339.83L1527.92 1338.67ZM1527.36 1339.46L1525.73 1338.3C1525.35 1338.84 1524.97 1339.37 1524.58 1339.91L1526.21 1341.07L1527.83 1342.24C1528.22 1341.7 1528.61 1341.16 1528.99 1340.62L1527.36 1339.46ZM1526.21 1341.07L1524.58 1339.91C1524.23 1340.4 1523.88 1340.88 1523.53 1341.37L1525.15 1342.54L1526.78 1343.71C1527.13 1343.22 1527.48 1342.73 1527.83 1342.24L1526.21 1341.07ZM1525.15 1342.54L1523.53 1341.37C1523.25 1341.77 1522.96 1342.16 1522.67 1342.56L1524.29 1343.73L1525.92 1344.9C1526.2 1344.51 1526.49 1344.11 1526.78 1343.71L1525.15 1342.54ZM1524.29 1343.73L1522.67 1342.56C1522.34 1343.02 1522 1343.48 1521.67 1343.95L1523.29 1345.12L1524.9 1346.3C1525.24 1345.83 1525.58 1345.37 1525.92 1344.9L1524.29 1343.73ZM1523.29 1345.12L1521.67 1343.95C1521.42 1344.28 1521.19 1344.6 1520.95 1344.93L1522.57 1346.11L1524.19 1347.28C1524.43 1346.96 1524.67 1346.62 1524.9 1346.3L1523.29 1345.12ZM1522.57 1346.11L1520.95 1344.93C1520.58 1345.45 1520.2 1345.97 1519.82 1346.49L1521.43 1347.67L1523.04 1348.85C1523.43 1348.33 1523.81 1347.81 1524.19 1347.28L1522.57 1346.11ZM1521.43 1347.67L1519.82 1346.49C1519.53 1346.87 1519.25 1347.26 1518.97 1347.64L1520.58 1348.83L1522.19 1350.01C1522.47 1349.63 1522.76 1349.24 1523.04 1348.85L1521.43 1347.67ZM1520.58 1348.83L1518.97 1347.64C1518.58 1348.17 1518.19 1348.7 1517.8 1349.23L1519.41 1350.42L1521.01 1351.61C1521.41 1351.08 1521.8 1350.54 1522.19 1350.01L1520.58 1348.83ZM1519.41 1350.42L1517.8 1349.23C1517.54 1349.58 1517.28 1349.92 1517.02 1350.27L1518.63 1351.47L1520.24 1352.66C1520.49 1352.31 1520.76 1351.96 1521.01 1351.61L1519.41 1350.42ZM1518.63 1351.47L1517.02 1350.27C1516.68 1350.74 1516.33 1351.21 1515.98 1351.67L1517.59 1352.87L1519.19 1354.06C1519.54 1353.59 1519.89 1353.12 1520.24 1352.66L1518.63 1351.47ZM1517.59 1352.87L1515.98 1351.67C1515.62 1352.17 1515.25 1352.66 1514.88 1353.15L1516.48 1354.35L1518.08 1355.55C1518.45 1355.05 1518.82 1354.56 1519.19 1354.06L1517.59 1352.87ZM1516.48 1354.35L1514.88 1353.15C1514.61 1353.51 1514.35 1353.86 1514.09 1354.21L1515.68 1355.42L1517.28 1356.62C1517.55 1356.26 1517.82 1355.9 1518.08 1355.55L1516.48 1354.35ZM1515.68 1355.42L1514.09 1354.21C1513.82 1354.57 1513.55 1354.92 1513.28 1355.28L1514.88 1356.49L1516.48 1357.69C1516.74 1357.33 1517.01 1356.98 1517.28 1356.62L1515.68 1355.42ZM1514.88 1356.49L1513.28 1355.28C1512.88 1355.81 1512.48 1356.34 1512.08 1356.87L1513.68 1358.08L1515.27 1359.29C1515.67 1358.75 1516.07 1358.22 1516.48 1357.69L1514.88 1356.49ZM1513.68 1358.08L1512.08 1356.87C1511.26 1357.96 1510.43 1359.05 1509.6 1360.13L1511.18 1361.35L1512.77 1362.56C1513.61 1361.47 1514.44 1360.38 1515.27 1359.29L1513.68 1358.08ZM1511.18 1361.35L1509.6 1360.13C1508.78 1361.19 1507.97 1362.25 1507.15 1363.31L1508.74 1364.53L1510.32 1365.76C1511.14 1364.69 1511.96 1363.63 1512.77 1362.56L1511.18 1361.35ZM1508.74 1364.53L1507.15 1363.31C1506.88 1363.67 1506.6 1364.02 1506.32 1364.38L1507.9 1365.61L1509.48 1366.83C1509.76 1366.47 1510.04 1366.11 1510.32 1365.76L1508.74 1364.53ZM1507.9 1365.61L1506.32 1364.38C1505.98 1364.82 1505.63 1365.26 1505.29 1365.71L1506.86 1366.94L1508.44 1368.17C1508.78 1367.73 1509.13 1367.28 1509.48 1366.83L1507.9 1365.61ZM1506.86 1366.94L1505.29 1365.71C1504.97 1366.12 1504.65 1366.53 1504.33 1366.93L1505.91 1368.17L1507.48 1369.4C1507.8 1368.99 1508.12 1368.58 1508.44 1368.17L1506.86 1366.94ZM1505.91 1368.17L1504.33 1366.93C1504 1367.35 1503.68 1367.77 1503.35 1368.18L1504.92 1369.42L1506.49 1370.66C1506.82 1370.24 1507.15 1369.82 1507.48 1369.4L1505.91 1368.17ZM1504.92 1369.42L1503.35 1368.18C1502.98 1368.65 1502.62 1369.11 1502.25 1369.57L1503.82 1370.81L1505.39 1372.05C1505.76 1371.59 1506.13 1371.12 1506.49 1370.66L1504.92 1369.42ZM1503.82 1370.81L1502.25 1369.57C1501.99 1369.91 1501.73 1370.24 1501.46 1370.58L1503.03 1371.82L1504.59 1373.06C1504.86 1372.73 1505.13 1372.39 1505.39 1372.05L1503.82 1370.81ZM1503.03 1371.82L1501.46 1370.58C1501.06 1371.09 1500.66 1371.59 1500.25 1372.1L1501.82 1373.34L1503.38 1374.59C1503.79 1374.08 1504.19 1373.57 1504.59 1373.06L1503.03 1371.82ZM1501.82 1373.34L1500.25 1372.1C1499.96 1372.47 1499.66 1372.84 1499.36 1373.21L1500.93 1374.46L1502.49 1375.71C1502.79 1375.33 1503.09 1374.96 1503.38 1374.59L1501.82 1373.34ZM1500.93 1374.46L1499.36 1373.21C1499.02 1373.64 1498.67 1374.08 1498.33 1374.51L1499.89 1375.76L1501.45 1377.01C1501.8 1376.58 1502.14 1376.14 1502.49 1375.71L1500.93 1374.46ZM1499.89 1375.76L1498.33 1374.51C1497.99 1374.93 1497.65 1375.35 1497.31 1375.78L1498.86 1377.03L1500.42 1378.29C1500.76 1377.86 1501.11 1377.44 1501.45 1377.01L1499.89 1375.76ZM1498.86 1377.03L1497.31 1375.78C1496.92 1376.26 1496.53 1376.73 1496.15 1377.21L1497.7 1378.47L1499.25 1379.73C1499.64 1379.25 1500.03 1378.77 1500.42 1378.29L1498.86 1377.03ZM1497.7 1378.47L1496.15 1377.21C1495.88 1377.54 1495.62 1377.86 1495.36 1378.18L1496.92 1379.44L1498.47 1380.7C1498.73 1380.38 1498.99 1380.05 1499.25 1379.73L1497.7 1378.47ZM1496.92 1379.44L1495.36 1378.18C1494.87 1378.79 1494.37 1379.39 1493.88 1380L1495.42 1381.27L1496.97 1382.53C1497.47 1381.92 1497.97 1381.31 1498.47 1380.7L1496.92 1379.44ZM1495.42 1381.27L1493.88 1380C1493.68 1380.24 1493.5 1380.46 1493.31 1380.69L1494.86 1381.96L1496.41 1383.23C1496.6 1383 1496.79 1382.75 1496.97 1382.53L1495.42 1381.27ZM1494.86 1381.96L1493.31 1380.69C1493.05 1381.02 1492.78 1381.34 1492.51 1381.66L1494.06 1382.93L1495.6 1384.2C1495.87 1383.88 1496.14 1383.55 1496.41 1383.23L1494.86 1381.96ZM1494.06 1382.93L1492.51 1381.66C1491.99 1382.3 1491.46 1382.94 1490.94 1383.58L1492.48 1384.85L1494.02 1386.13C1494.55 1385.49 1495.08 1384.85 1495.6 1384.2L1494.06 1382.93ZM1492.48 1384.85L1490.94 1383.58C1490.37 1384.27 1489.79 1384.96 1489.22 1385.65L1490.76 1386.93L1492.29 1388.21C1492.87 1387.52 1493.44 1386.82 1494.02 1386.13L1492.48 1384.85ZM1490.76 1386.93L1489.22 1385.65C1489.11 1385.78 1489.05 1385.85 1488.95 1385.98L1490.48 1387.26L1492.02 1388.54C1492.1 1388.44 1492.22 1388.3 1492.29 1388.21L1490.76 1386.93ZM1490.48 1387.26L1488.95 1385.98C1487.69 1387.48 1486.43 1388.98 1485.16 1390.48L1486.69 1391.77L1488.22 1393.06C1489.49 1391.56 1490.76 1390.05 1492.02 1388.54L1490.48 1387.26ZM1486.69 1391.77L1485.16 1390.48C1484.77 1390.95 1484.37 1391.42 1483.97 1391.89L1485.49 1393.18L1487.02 1394.48C1487.42 1394.01 1487.82 1393.54 1488.22 1393.06L1486.69 1391.77ZM1485.49 1393.18L1483.97 1391.89C1483.65 1392.26 1483.33 1392.64 1483 1393.02L1484.53 1394.32L1486.05 1395.62C1486.37 1395.24 1486.69 1394.86 1487.02 1394.48L1485.49 1393.18ZM1484.53 1394.32L1483 1393.02C1482.68 1393.4 1482.36 1393.77 1482.04 1394.15L1483.56 1395.45L1485.08 1396.75C1485.4 1396.37 1485.72 1395.99 1486.05 1395.62L1484.53 1394.32ZM1483.56 1395.45L1482.04 1394.15C1481.65 1394.6 1481.26 1395.06 1480.86 1395.52L1482.38 1396.82L1483.89 1398.13C1484.29 1397.67 1484.68 1397.21 1485.08 1396.75L1483.56 1395.45ZM1482.38 1396.82L1480.86 1395.52C1480.53 1395.9 1480.21 1396.28 1479.88 1396.66L1481.4 1397.96L1482.91 1399.27C1483.24 1398.89 1483.57 1398.51 1483.89 1398.13L1482.38 1396.82ZM1481.4 1397.96L1479.88 1396.66C1479.56 1397.03 1479.23 1397.41 1478.9 1397.79L1480.41 1399.1L1481.92 1400.41C1482.25 1400.03 1482.58 1399.65 1482.91 1399.27L1481.4 1397.96ZM1480.41 1399.1L1478.9 1397.79C1478.49 1398.26 1478.09 1398.72 1477.68 1399.19L1479.19 1400.5L1480.7 1401.82C1481.11 1401.35 1481.52 1400.88 1481.92 1400.41L1480.41 1399.1ZM1479.19 1400.5L1477.68 1399.19C1477.35 1399.57 1477.02 1399.95 1476.69 1400.33L1478.19 1401.65L1479.7 1402.96C1480.03 1402.58 1480.36 1402.2 1480.7 1401.82L1479.19 1400.5ZM1478.19 1401.65L1476.69 1400.33C1476.36 1400.7 1476.05 1401.07 1475.72 1401.43L1477.23 1402.75L1478.73 1404.07C1479.05 1403.7 1479.38 1403.33 1479.7 1402.96L1478.19 1401.65ZM1477.23 1402.75L1475.72 1401.43C1474.5 1402.82 1473.28 1404.21 1472.05 1405.59L1473.54 1406.92L1475.04 1408.25C1476.27 1406.86 1477.5 1405.47 1478.73 1404.07L1477.23 1402.75ZM1473.54 1406.92L1472.05 1405.59C1471.81 1405.86 1471.62 1406.08 1471.39 1406.33L1472.88 1407.67L1474.37 1409C1474.59 1408.76 1474.83 1408.48 1475.04 1408.25L1473.54 1406.92ZM1472.88 1407.67L1471.39 1406.33C1469.97 1407.92 1468.54 1409.51 1467.11 1411.09L1468.59 1412.43L1470.07 1413.77C1471.51 1412.19 1472.94 1410.59 1474.37 1409L1472.88 1407.67ZM1468.59 1412.43L1467.11 1411.09C1466.86 1411.36 1466.63 1411.61 1466.37 1411.89L1467.85 1413.24L1469.33 1414.58C1469.57 1414.32 1469.83 1414.04 1470.07 1413.77L1468.59 1412.43ZM1467.85 1413.24L1466.37 1411.89C1465.87 1412.45 1465.36 1413.01 1464.86 1413.56L1466.33 1414.91L1467.81 1416.26C1468.32 1415.7 1468.83 1415.14 1469.33 1414.58L1467.85 1413.24ZM1466.33 1414.91L1464.86 1413.56C1464.68 1413.75 1464.51 1413.94 1464.34 1414.13L1465.81 1415.48L1467.29 1416.83C1467.46 1416.64 1467.63 1416.45 1467.81 1416.26L1466.33 1414.91ZM1465.81 1415.48L1464.34 1414.13C1463.76 1414.75 1463.19 1415.38 1462.61 1416.01L1464.08 1417.36L1465.55 1418.72C1466.13 1418.09 1466.71 1417.46 1467.29 1416.83L1465.81 1415.48ZM1464.08 1417.36L1462.61 1416.01C1462.43 1416.2 1462.26 1416.38 1462.09 1416.57L1463.55 1417.93L1465.02 1419.29C1465.2 1419.1 1465.38 1418.91 1465.55 1418.72L1464.08 1417.36ZM1463.55 1417.93L1462.09 1416.57C1461.56 1417.15 1461.03 1417.72 1460.49 1418.29L1461.96 1419.65L1463.42 1421.01C1463.96 1420.44 1464.49 1419.86 1465.02 1419.29L1463.55 1417.93ZM1461.96 1419.65L1460.49 1418.29C1460.21 1418.59 1459.93 1418.89 1459.65 1419.2L1461.11 1420.56L1462.58 1421.93C1462.86 1421.62 1463.14 1421.32 1463.42 1421.01L1461.96 1419.65ZM1461.11 1420.56L1459.65 1419.2C1459.23 1419.65 1458.8 1420.11 1458.37 1420.56L1459.83 1421.93L1461.29 1423.3C1461.72 1422.84 1462.15 1422.38 1462.58 1421.93L1461.11 1420.56ZM1459.83 1421.93L1458.37 1420.56C1458.03 1420.92 1457.7 1421.28 1457.36 1421.64L1458.82 1423.01L1460.27 1424.38C1460.61 1424.02 1460.95 1423.66 1461.29 1423.3L1459.83 1421.93ZM1458.82 1423.01L1457.36 1421.64C1456.94 1422.09 1456.52 1422.53 1456.1 1422.98L1457.55 1424.35L1459.01 1425.73C1459.43 1425.28 1459.85 1424.83 1460.27 1424.38L1458.82 1423.01ZM1457.55 1424.35L1456.1 1422.98C1455.82 1423.28 1455.56 1423.56 1455.28 1423.85L1456.73 1425.22L1458.19 1426.6C1458.46 1426.31 1458.74 1426.01 1459.01 1425.73L1457.55 1424.35ZM1456.73 1425.22L1455.28 1423.85C1454.76 1424.4 1454.23 1424.95 1453.7 1425.51L1455.14 1426.89L1456.59 1428.27C1457.12 1427.72 1457.65 1427.16 1458.19 1426.6L1456.73 1425.22ZM1455.14 1426.89L1453.7 1425.51C1453.46 1425.76 1453.23 1426 1453 1426.25L1454.44 1427.63L1455.89 1429.01C1456.12 1428.76 1456.36 1428.51 1456.59 1428.27L1455.14 1426.89ZM1454.44 1427.63L1453 1426.25C1452.54 1426.72 1452.09 1427.2 1451.63 1427.67L1453.08 1429.06L1454.52 1430.44C1454.97 1429.97 1455.43 1429.49 1455.89 1429.01L1454.44 1427.63ZM1453.08 1429.06L1451.63 1427.67C1450.38 1428.97 1449.13 1430.27 1447.87 1431.56L1449.3 1432.96L1450.74 1434.35C1452 1433.05 1453.26 1431.75 1454.52 1430.44L1453.08 1429.06ZM1449.3 1432.96L1447.87 1431.56C1447.33 1432.12 1446.8 1432.67 1446.26 1433.21L1447.69 1434.61L1449.12 1436.01C1449.66 1435.46 1450.2 1434.91 1450.74 1434.35L1449.3 1432.96ZM1447.69 1434.61L1446.26 1433.21C1445.94 1433.54 1445.63 1433.86 1445.3 1434.19L1446.73 1435.59L1448.16 1436.99C1448.47 1436.67 1448.8 1436.34 1449.12 1436.01L1447.69 1434.61ZM1446.73 1435.59L1445.3 1434.19C1444.89 1434.61 1444.47 1435.03 1444.06 1435.45L1445.48 1436.86L1446.91 1438.26C1447.33 1437.84 1447.74 1437.41 1448.16 1436.99L1446.73 1435.59ZM1445.48 1436.86L1444.06 1435.45C1443.69 1435.83 1443.32 1436.2 1442.95 1436.57L1444.37 1437.98L1445.79 1439.39C1446.16 1439.01 1446.54 1438.64 1446.91 1438.26L1445.48 1436.86ZM1444.37 1437.98L1442.95 1436.57C1442.55 1436.98 1442.14 1437.39 1441.74 1437.8L1443.16 1439.21L1444.57 1440.62C1444.98 1440.21 1445.39 1439.8 1445.79 1439.39L1444.37 1437.98ZM1443.16 1439.21L1441.74 1437.8C1441.48 1438.06 1441.22 1438.31 1440.96 1438.58L1442.37 1439.99L1443.79 1441.4C1444.05 1441.14 1444.31 1440.88 1444.57 1440.62L1443.16 1439.21ZM1442.37 1439.99L1440.96 1438.58C1440.4 1439.14 1439.84 1439.69 1439.29 1440.25L1440.7 1441.66L1442.11 1443.08C1442.67 1442.52 1443.23 1441.96 1443.79 1441.4L1442.37 1439.99ZM1440.7 1441.66L1439.29 1440.25C1439.01 1440.52 1438.73 1440.8 1438.45 1441.08L1439.86 1442.5L1441.27 1443.91C1441.55 1443.64 1441.83 1443.36 1442.11 1443.08L1440.7 1441.66ZM1439.86 1442.5L1438.45 1441.08C1438.06 1441.47 1437.67 1441.86 1437.27 1442.25L1438.68 1443.67L1440.09 1445.09C1440.48 1444.7 1440.88 1444.31 1441.27 1443.91L1439.86 1442.5ZM1438.68 1443.67L1437.27 1442.25C1436.88 1442.64 1436.48 1443.03 1436.08 1443.42L1437.49 1444.85L1438.89 1446.27C1439.29 1445.88 1439.69 1445.48 1440.09 1445.09L1438.68 1443.67ZM1437.49 1444.85L1436.08 1443.42C1435.61 1443.89 1435.14 1444.35 1434.67 1444.81L1436.07 1446.24L1437.47 1447.67C1437.94 1447.2 1438.42 1446.74 1438.89 1446.27L1437.49 1444.85ZM1436.07 1446.24L1434.67 1444.81C1434.42 1445.05 1434.19 1445.28 1433.95 1445.51L1435.35 1446.94L1436.75 1448.37C1436.99 1448.14 1437.23 1447.9 1437.47 1447.67L1436.07 1446.24ZM1435.35 1446.94L1433.95 1445.51C1433.4 1446.06 1432.84 1446.6 1432.27 1447.15L1433.67 1448.58L1435.06 1450.02C1435.62 1449.47 1436.19 1448.92 1436.75 1448.37L1435.35 1446.94ZM1433.67 1448.58L1432.27 1447.15C1432.03 1447.39 1431.79 1447.63 1431.54 1447.86L1432.93 1449.3L1434.33 1450.73C1434.57 1450.5 1434.82 1450.26 1435.06 1450.02L1433.67 1448.58ZM1432.93 1449.3L1431.54 1447.86C1431.1 1448.29 1430.65 1448.72 1430.2 1449.16L1431.59 1450.59L1432.98 1452.03C1433.43 1451.6 1433.88 1451.17 1434.33 1450.73L1432.93 1449.3ZM1431.59 1450.59L1430.2 1449.16C1429.84 1449.5 1429.49 1449.85 1429.13 1450.19L1430.51 1451.63L1431.9 1453.08C1432.26 1452.73 1432.62 1452.38 1432.98 1452.03L1431.59 1450.59ZM1430.51 1451.63L1429.13 1450.19C1427.62 1451.64 1426.11 1453.08 1424.6 1454.52L1425.97 1455.97L1427.35 1457.42C1428.87 1455.98 1430.39 1454.53 1431.9 1453.08L1430.51 1451.63ZM1425.97 1455.97L1424.6 1454.52C1424.28 1454.82 1423.96 1455.12 1423.63 1455.43L1425.01 1456.88L1426.38 1458.34C1426.7 1458.03 1427.02 1457.73 1427.35 1457.42L1425.97 1455.97ZM1425.01 1456.88L1423.63 1455.43C1423.18 1455.86 1422.72 1456.29 1422.27 1456.71L1423.64 1458.17L1425 1459.63C1425.46 1459.2 1425.92 1458.77 1426.38 1458.34L1425.01 1456.88ZM1423.64 1458.17L1422.27 1456.71C1421.93 1457.03 1421.6 1457.34 1421.26 1457.65L1422.63 1459.12L1424 1460.58C1424.33 1460.26 1424.67 1459.95 1425 1459.63L1423.64 1458.17ZM1422.63 1459.12L1421.26 1457.65C1420.78 1458.11 1420.29 1458.57 1419.8 1459.02L1421.16 1460.48L1422.53 1461.95C1423.02 1461.49 1423.51 1461.03 1424 1460.58L1422.63 1459.12ZM1421.16 1460.48L1419.8 1459.02C1419.46 1459.34 1419.12 1459.65 1418.77 1459.97L1420.13 1461.44L1421.49 1462.91C1421.84 1462.59 1422.18 1462.27 1422.53 1461.95L1421.16 1460.48ZM1420.13 1461.44L1418.77 1459.97C1418.39 1460.33 1418 1460.69 1417.62 1461.04L1418.98 1462.51L1420.33 1463.98C1420.72 1463.62 1421.11 1463.26 1421.49 1462.91L1420.13 1461.44ZM1418.98 1462.51L1417.62 1461.04C1417.25 1461.38 1416.88 1461.72 1416.51 1462.07L1417.87 1463.54L1419.22 1465.01C1419.59 1464.67 1419.96 1464.32 1420.33 1463.98L1418.98 1462.51ZM1417.87 1463.54L1416.51 1462.07C1416 1462.53 1415.49 1463 1414.99 1463.47L1416.34 1464.94L1417.69 1466.42C1418.2 1465.95 1418.71 1465.48 1419.22 1465.01L1417.87 1463.54ZM1416.34 1464.94L1414.99 1463.47C1414.72 1463.71 1414.46 1463.95 1414.19 1464.2L1415.54 1465.67L1416.88 1467.15C1417.15 1466.91 1417.42 1466.66 1417.69 1466.42L1416.34 1464.94ZM1415.54 1465.67L1414.19 1464.2C1413.66 1464.67 1413.14 1465.15 1412.62 1465.63L1413.96 1467.11L1415.31 1468.59C1415.83 1468.11 1416.36 1467.63 1416.88 1467.15L1415.54 1465.67ZM1413.96 1467.11L1412.62 1465.63C1412.29 1465.93 1411.96 1466.23 1411.63 1466.53L1412.97 1468.01L1414.31 1469.49C1414.64 1469.19 1414.98 1468.89 1415.31 1468.59L1413.96 1467.11ZM1412.97 1468.01L1411.63 1466.53C1411.25 1466.86 1410.88 1467.2 1410.5 1467.54L1411.84 1469.02L1413.18 1470.51C1413.56 1470.17 1413.93 1469.83 1414.31 1469.49L1412.97 1468.01ZM1411.84 1469.02L1410.5 1467.54C1410.06 1467.94 1409.62 1468.34 1409.18 1468.73L1410.51 1470.22L1411.85 1471.71C1412.3 1471.31 1412.74 1470.91 1413.18 1470.51L1411.84 1469.02ZM1410.51 1470.22L1409.18 1468.73C1408.73 1469.14 1408.28 1469.53 1407.83 1469.94L1409.17 1471.43L1410.5 1472.92C1410.95 1472.52 1411.4 1472.12 1411.85 1471.71L1410.51 1470.22ZM1409.17 1471.43L1407.83 1469.94C1407.5 1470.23 1407.19 1470.51 1406.87 1470.8L1408.2 1472.29L1409.53 1473.79C1409.85 1473.5 1410.19 1473.2 1410.5 1472.92L1409.17 1471.43ZM1408.2 1472.29L1406.87 1470.8C1405.24 1472.25 1403.6 1473.7 1401.96 1475.14L1403.28 1476.64L1404.6 1478.15C1406.25 1476.7 1407.89 1475.25 1409.53 1473.79L1408.2 1472.29ZM1403.28 1476.64L1401.96 1475.14C1400.8 1476.15 1399.64 1477.16 1398.48 1478.17L1399.79 1479.68L1401.1 1481.19C1402.27 1480.18 1403.43 1479.17 1404.6 1478.15L1403.28 1476.64ZM1399.79 1479.68L1398.48 1478.17C1397.99 1478.59 1397.51 1479.01 1397.02 1479.43L1398.32 1480.95L1399.63 1482.46C1400.12 1482.04 1400.61 1481.62 1401.1 1481.19L1399.79 1479.68ZM1398.32 1480.95L1397.02 1479.43C1396.82 1479.6 1396.62 1479.78 1396.42 1479.95L1397.72 1481.47L1399.02 1482.98C1399.23 1482.81 1399.43 1482.64 1399.63 1482.46L1398.32 1480.95ZM1397.72 1481.47L1396.42 1479.95C1395.84 1480.44 1395.27 1480.93 1394.7 1481.42L1396 1482.94L1397.3 1484.46C1397.88 1483.97 1398.45 1483.48 1399.02 1482.98L1397.72 1481.47ZM1396 1482.94L1394.7 1481.42C1394.3 1481.76 1393.91 1482.1 1393.51 1482.44L1394.81 1483.96L1396.1 1485.48C1396.5 1485.14 1396.9 1484.8 1397.3 1484.46L1396 1482.94ZM1394.81 1483.96L1393.51 1482.44C1393.11 1482.78 1392.72 1483.11 1392.32 1483.45L1393.62 1484.97L1394.91 1486.5C1395.31 1486.16 1395.71 1485.82 1396.1 1485.48L1394.81 1483.96ZM1393.62 1484.97L1392.32 1483.45C1391.95 1483.76 1391.58 1484.08 1391.21 1484.39L1392.5 1485.92L1393.79 1487.45C1394.16 1487.13 1394.54 1486.81 1394.91 1486.5L1393.62 1484.97ZM1392.5 1485.92L1391.21 1484.39C1390.74 1484.79 1390.27 1485.18 1389.8 1485.58L1391.09 1487.11L1392.38 1488.64C1392.85 1488.24 1393.32 1487.84 1393.79 1487.45L1392.5 1485.92ZM1391.09 1487.11L1389.8 1485.58C1389.37 1485.94 1388.94 1486.3 1388.51 1486.66L1389.79 1488.2L1391.08 1489.73C1391.51 1489.37 1391.94 1489 1392.38 1488.64L1391.09 1487.11ZM1389.79 1488.2L1388.51 1486.66C1388.21 1486.91 1387.92 1487.16 1387.62 1487.4L1388.91 1488.94L1390.19 1490.47C1390.48 1490.23 1390.78 1489.98 1391.08 1489.73L1389.79 1488.2ZM1388.91 1488.94L1387.62 1487.4C1387.12 1487.82 1386.63 1488.24 1386.13 1488.65L1387.41 1490.19L1388.69 1491.73C1389.19 1491.31 1389.69 1490.89 1390.19 1490.47L1388.91 1488.94ZM1387.41 1490.19L1386.13 1488.65C1385.75 1488.97 1385.37 1489.28 1384.99 1489.6L1386.26 1491.14L1387.54 1492.68C1387.92 1492.37 1388.3 1492.05 1388.69 1491.73L1387.41 1490.19ZM1386.26 1491.14L1384.99 1489.6C1384.53 1489.97 1384.08 1490.35 1383.63 1490.72L1384.91 1492.26L1386.18 1493.8C1386.63 1493.43 1387.09 1493.05 1387.54 1492.68L1386.26 1491.14ZM1384.91 1492.26L1383.63 1490.72C1381.16 1492.76 1378.66 1494.79 1376.16 1496.8L1377.41 1498.36L1378.67 1499.92C1381.18 1497.9 1383.69 1495.86 1386.18 1493.8L1384.91 1492.26ZM1377.41 1498.36L1376.16 1496.8C1375.93 1496.99 1375.71 1497.16 1375.48 1497.35L1376.73 1498.91L1377.98 1500.47C1378.2 1500.29 1378.44 1500.1 1378.67 1499.92L1377.41 1498.36ZM1376.73 1498.91L1375.48 1497.35C1374.85 1497.85 1374.22 1498.36 1373.6 1498.85L1374.85 1500.42L1376.09 1501.98C1376.72 1501.48 1377.35 1500.97 1377.98 1500.47L1376.73 1498.91ZM1374.85 1500.42L1373.6 1498.85C1373.3 1499.1 1372.99 1499.34 1372.69 1499.58L1373.93 1501.15L1375.18 1502.71C1375.48 1502.47 1375.79 1502.23 1376.09 1501.98L1374.85 1500.42ZM1373.93 1501.15L1372.69 1499.58C1372.22 1499.95 1371.76 1500.32 1371.29 1500.69L1372.54 1502.25L1373.78 1503.82C1374.24 1503.45 1374.71 1503.08 1375.18 1502.71L1373.93 1501.15ZM1372.54 1502.25L1371.29 1500.69C1370.85 1501.04 1370.4 1501.39 1369.95 1501.75L1371.18 1503.32L1372.42 1504.89C1372.87 1504.54 1373.32 1504.18 1373.78 1503.82L1372.54 1502.25ZM1371.18 1503.32L1369.95 1501.75C1369.49 1502.1 1369.04 1502.46 1368.59 1502.81L1369.83 1504.39L1371.06 1505.96C1371.51 1505.6 1371.97 1505.25 1372.42 1504.89L1371.18 1503.32ZM1369.83 1504.39L1368.59 1502.81C1368.22 1503.11 1367.85 1503.4 1367.47 1503.69L1368.7 1505.27L1369.94 1506.84C1370.31 1506.55 1370.69 1506.26 1371.06 1505.96L1369.83 1504.39ZM1368.7 1505.27L1367.47 1503.69C1367.05 1504.02 1366.62 1504.35 1366.2 1504.69L1367.43 1506.26L1368.65 1507.84C1369.08 1507.51 1369.51 1507.18 1369.94 1506.84L1368.7 1505.27ZM1367.43 1506.26L1366.2 1504.69C1365.76 1505.03 1365.33 1505.36 1364.89 1505.7L1366.12 1507.28L1367.34 1508.86C1367.78 1508.52 1368.22 1508.18 1368.65 1507.84L1367.43 1506.26ZM1366.12 1507.28L1364.89 1505.7C1364.37 1506.1 1363.85 1506.51 1363.33 1506.91L1364.55 1508.49L1365.77 1510.08C1366.29 1509.67 1366.82 1509.27 1367.34 1508.86L1366.12 1507.28ZM1364.55 1508.49L1363.33 1506.91C1363.03 1507.14 1362.73 1507.37 1362.43 1507.6L1363.65 1509.19L1364.87 1510.77C1365.17 1510.54 1365.47 1510.31 1365.77 1510.08L1364.55 1508.49ZM1363.65 1509.19L1362.43 1507.6C1361.91 1508 1361.39 1508.4 1360.87 1508.8L1362.08 1510.39L1363.3 1511.97C1363.82 1511.58 1364.34 1511.17 1364.87 1510.77L1363.65 1509.19ZM1362.08 1510.39L1360.87 1508.8C1360.5 1509.08 1360.14 1509.36 1359.77 1509.64L1360.98 1511.23L1362.19 1512.82C1362.56 1512.54 1362.94 1512.25 1363.3 1511.97L1362.08 1510.39ZM1360.98 1511.23L1359.77 1509.64C1359.28 1510.01 1358.8 1510.38 1358.31 1510.75L1359.52 1512.34L1360.73 1513.93C1361.22 1513.56 1361.71 1513.19 1362.19 1512.82L1360.98 1511.23ZM1359.52 1512.34L1358.31 1510.75C1357.93 1511.03 1357.57 1511.31 1357.2 1511.59L1358.4 1513.19L1359.61 1514.78C1359.98 1514.5 1360.36 1514.21 1360.73 1513.93L1359.52 1512.34ZM1358.4 1513.19L1357.2 1511.59C1355.49 1512.88 1353.78 1514.17 1352.06 1515.44L1353.25 1517.05L1354.44 1518.65C1356.17 1517.37 1357.89 1516.08 1359.61 1514.78L1358.4 1513.19ZM1353.25 1517.05L1352.06 1515.44C1351.76 1515.66 1351.48 1515.87 1351.18 1516.09L1352.37 1517.7L1353.56 1519.31C1353.85 1519.09 1354.15 1518.87 1354.44 1518.65L1353.25 1517.05ZM1352.37 1517.7L1351.18 1516.09C1350.59 1516.53 1350.01 1516.96 1349.43 1517.39L1350.61 1519L1351.8 1520.61C1352.39 1520.18 1352.98 1519.74 1353.56 1519.31L1352.37 1517.7ZM1350.61 1519L1349.43 1517.39C1349.13 1517.61 1348.84 1517.82 1348.55 1518.04L1349.73 1519.65L1350.92 1521.26C1351.21 1521.04 1351.5 1520.83 1351.8 1520.61L1350.61 1519ZM1349.73 1519.65L1348.55 1518.04C1347.94 1518.48 1347.33 1518.93 1346.72 1519.38L1347.9 1520.99L1349.08 1522.61C1349.69 1522.16 1350.31 1521.71 1350.92 1521.26L1349.73 1519.65ZM1347.9 1520.99L1346.72 1519.38C1346.45 1519.57 1346.18 1519.77 1345.92 1519.96L1347.09 1521.58L1348.27 1523.2C1348.54 1523 1348.81 1522.8 1349.08 1522.61L1347.9 1520.99ZM1347.09 1521.58L1345.92 1519.96C1345.34 1520.38 1344.76 1520.8 1344.18 1521.22L1345.35 1522.84L1346.53 1524.46C1347.11 1524.04 1347.69 1523.62 1348.27 1523.2L1347.09 1521.58ZM1345.35 1522.84L1344.18 1521.22C1343.83 1521.48 1343.49 1521.73 1343.14 1521.98L1344.31 1523.6L1345.48 1525.22C1345.83 1524.97 1346.18 1524.72 1346.53 1524.46L1345.35 1522.84ZM1344.31 1523.6L1343.14 1521.98C1342.57 1522.39 1342 1522.8 1341.43 1523.21L1342.6 1524.83L1343.76 1526.46C1344.34 1526.04 1344.91 1525.63 1345.48 1525.22L1344.31 1523.6ZM1342.6 1524.83L1341.43 1523.21C1341.14 1523.42 1340.84 1523.63 1340.55 1523.84L1341.71 1525.46L1342.88 1527.09C1343.17 1526.88 1343.47 1526.67 1343.76 1526.46L1342.6 1524.83ZM1341.71 1525.46L1340.55 1523.84C1339.98 1524.25 1339.41 1524.65 1338.84 1525.06L1340 1526.69L1341.16 1528.32C1341.73 1527.91 1342.31 1527.5 1342.88 1527.09L1341.71 1525.46ZM1340 1526.69L1338.84 1525.06C1338.5 1525.3 1338.17 1525.54 1337.83 1525.77L1338.99 1527.41L1340.15 1529.04C1340.49 1528.8 1340.83 1528.56 1341.16 1528.32L1340 1526.69ZM1338.99 1527.41L1337.83 1525.77C1337.24 1526.2 1336.64 1526.62 1336.04 1527.04L1337.2 1528.67L1338.35 1530.31C1338.95 1529.89 1339.55 1529.46 1340.15 1529.04L1338.99 1527.41ZM1337.2 1528.67L1336.04 1527.04C1335.75 1527.25 1335.45 1527.46 1335.16 1527.67L1336.31 1529.3L1337.46 1530.94C1337.76 1530.73 1338.05 1530.52 1338.35 1530.31L1337.2 1528.67ZM1336.31 1529.3L1335.16 1527.67C1334.65 1528.02 1334.15 1528.37 1333.65 1528.73L1334.79 1530.36L1335.94 1532C1336.45 1531.65 1336.95 1531.29 1337.46 1530.94L1336.31 1529.3ZM1334.79 1530.36L1333.65 1528.73C1333.24 1529.01 1332.85 1529.28 1332.45 1529.56L1333.6 1531.2L1334.74 1532.84C1335.14 1532.56 1335.55 1532.28 1335.94 1532L1334.79 1530.36ZM1333.6 1531.2L1332.45 1529.56C1331.79 1530.02 1331.13 1530.48 1330.47 1530.94L1331.61 1532.58L1332.75 1534.23C1333.41 1533.77 1334.08 1533.31 1334.74 1532.84L1333.6 1531.2ZM1331.61 1532.58L1330.47 1530.94C1329.98 1531.28 1329.49 1531.62 1328.99 1531.96L1330.13 1533.6L1331.26 1535.25C1331.76 1534.91 1332.25 1534.57 1332.75 1534.23L1331.61 1532.58ZM1330.13 1533.6L1328.99 1531.96C1328.39 1532.37 1327.8 1532.78 1327.2 1533.19L1328.33 1534.84L1329.47 1536.49C1330.07 1536.08 1330.67 1535.66 1331.26 1535.25L1330.13 1533.6ZM1328.33 1534.84L1327.2 1533.19C1326.82 1533.46 1326.43 1533.72 1326.03 1533.99L1327.16 1535.64L1328.29 1537.29C1328.68 1537.03 1329.07 1536.76 1329.47 1536.49L1328.33 1534.84ZM1327.16 1535.64L1326.03 1533.99C1325.53 1534.33 1325.03 1534.68 1324.53 1535.02L1325.65 1536.67L1326.77 1538.33C1327.28 1537.98 1327.79 1537.64 1328.29 1537.29L1327.16 1535.64ZM1325.65 1536.67L1324.53 1535.02C1324.15 1535.27 1323.78 1535.53 1323.4 1535.78L1324.52 1537.44L1325.64 1539.09C1326.02 1538.84 1326.4 1538.58 1326.77 1538.33L1325.65 1536.67ZM1324.52 1537.44L1323.4 1535.78C1322.86 1536.15 1322.31 1536.51 1321.77 1536.88L1322.89 1538.54L1324.01 1540.2C1324.55 1539.83 1325.1 1539.46 1325.64 1539.09L1324.52 1537.44ZM1322.89 1538.54L1321.77 1536.88C1321.42 1537.12 1321.07 1537.35 1320.71 1537.59L1321.83 1539.25L1322.94 1540.91C1323.29 1540.68 1323.65 1540.44 1324.01 1540.2L1322.89 1538.54ZM1321.83 1539.25L1320.71 1537.59C1320.13 1537.98 1319.54 1538.38 1318.96 1538.77L1320.07 1540.43L1321.18 1542.09C1321.77 1541.7 1322.36 1541.31 1322.94 1540.91L1321.83 1539.25ZM1320.07 1540.43L1318.96 1538.77C1318.7 1538.94 1318.45 1539.11 1318.19 1539.28L1319.3 1540.94L1320.41 1542.61C1320.67 1542.44 1320.92 1542.27 1321.18 1542.09L1320.07 1540.43ZM1319.3 1540.94L1318.19 1539.28C1317.54 1539.71 1316.89 1540.14 1316.23 1540.58L1317.33 1542.25L1318.44 1543.91C1319.09 1543.48 1319.75 1543.04 1320.41 1542.61L1319.3 1540.94ZM1317.33 1542.25L1316.23 1540.58C1315.89 1540.8 1315.57 1541.02 1315.24 1541.23L1316.34 1542.9L1317.44 1544.57C1317.77 1544.35 1318.11 1544.13 1318.44 1543.91L1317.33 1542.25ZM1316.34 1542.9L1315.24 1541.23C1314.62 1541.64 1314 1542.05 1313.37 1542.46L1314.47 1544.13L1315.57 1545.8C1316.19 1545.4 1316.82 1544.99 1317.44 1544.57L1316.34 1542.9ZM1314.47 1544.13L1313.37 1542.46C1313.15 1542.6 1312.95 1542.74 1312.73 1542.88L1313.82 1544.56L1314.92 1546.23C1315.13 1546.09 1315.36 1545.94 1315.57 1545.8L1314.47 1544.13ZM1313.82 1544.56L1312.73 1542.88C1312.48 1543.04 1312.28 1543.18 1312.04 1543.33L1313.13 1545.01L1314.23 1546.68C1314.45 1546.54 1314.7 1546.37 1314.92 1546.23L1313.82 1544.56ZM1313.13 1545.01L1312.04 1543.33C1312.06 1543.32 1312.07 1543.31 1312.08 1543.31C1312.09 1543.3 1312.09 1543.3 1312.09 1543.31C1312.08 1543.31 1312.07 1543.32 1312.05 1543.33C1312.03 1543.34 1312.01 1543.35 1311.98 1543.37L1313.06 1545.05L1314.14 1546.74C1314.12 1546.75 1314.11 1546.76 1314.1 1546.76C1314.1 1546.76 1314.1 1546.76 1314.11 1546.76C1314.11 1546.75 1314.13 1546.74 1314.15 1546.73C1314.17 1546.72 1314.19 1546.7 1314.23 1546.68L1313.13 1545.01ZM1313.06 1545.05L1311.97 1543.38C1306.57 1546.9 1301.13 1550.35 1295.65 1553.75L1296.7 1555.45L1297.75 1557.15C1303.27 1553.74 1308.73 1550.26 1314.15 1546.73L1313.06 1545.05ZM1296.7 1555.45L1295.65 1553.75C1177.86 1626.57 1043.29 1667.4 905.249 1672.46L905.322 1674.46L905.396 1676.46C1044.13 1671.37 1179.37 1630.34 1297.75 1557.15L1296.7 1555.45ZM905.322 1674.46L905.092 1672.47C902.11 1672.82 899.076 1673 896.001 1673V1675V1677C899.232 1677 902.419 1676.81 905.553 1676.45L905.322 1674.46ZM896.001 1675V1673H856.001V1675V1677H896.001V1675ZM856.001 1675V1673C852.924 1673 849.89 1672.82 846.907 1672.47L846.677 1674.46L846.446 1676.45C849.581 1676.81 852.769 1677 856.001 1677V1675ZM846.677 1674.46L846.75 1672.46C751.935 1668.98 658.418 1648.62 570.618 1612.25L569.853 1614.1L569.087 1615.95C657.328 1652.5 751.314 1672.96 846.603 1676.46L846.677 1674.46ZM569.853 1614.1L570.618 1612.25C473.8 1572.15 385.83 1513.37 311.729 1439.27L310.314 1440.68L308.9 1442.1C383.373 1516.57 471.784 1575.65 569.087 1615.95L569.853 1614.1ZM310.314 1440.68L311.729 1439.27C237.628 1365.17 178.847 1277.2 138.744 1180.38L136.896 1181.15L135.049 1181.91C175.353 1279.21 234.428 1367.63 308.9 1442.1L310.314 1440.68ZM136.896 1181.15L138.744 1180.38C101.819 1091.23 81.3928 996.195 78.3877 899.888L76.3887 899.95L74.3896 900.013C77.4098 996.802 97.9381 1092.32 135.049 1181.91L136.896 1181.15ZM76.3887 899.95L78.3853 899.835C78.2948 898.271 78.25 896.695 78.2529 895.108L76.2529 895.104L74.2529 895.101C74.2499 896.768 74.2969 898.423 74.392 900.066L76.3887 899.95ZM76.2529 895.104L78.2523 895.054C78.0844 888.374 78 881.689 78 874.999H76H74C74 881.722 74.0848 888.441 74.2536 895.155L76.2529 895.104ZM76 874.999V876.999H76.3154V874.999V872.999H76V874.999ZM76.3154 874.999L78.3154 875.005L78.6299 775.004L76.6299 774.998L74.6299 774.992L74.3154 874.993L76.3154 874.999ZM76.6299 774.998L76.6236 776.998L532.969 778.431L532.976 776.431L532.982 774.431L76.6362 772.998L76.6299 774.998ZM532.976 776.431L530.976 776.424L530.6 896.423L532.6 896.43L534.6 896.436L534.976 776.437L532.976 776.431ZM532.6 896.43L530.6 896.423C530.464 939.501 495.433 974.314 452.355 974.179L452.349 976.179L452.342 978.179C497.629 978.321 534.457 941.723 534.6 896.436L532.6 896.43ZM452.349 976.179L452.355 974.179L284.511 973.651L284.505 975.651L284.499 977.651L452.342 978.179L452.349 976.179ZM284.505 975.651L282.533 975.987C290.069 1020.27 302.553 1063.68 319.824 1105.37L321.672 1104.61L323.52 1103.84C306.363 1062.42 293.962 1019.31 286.477 975.316L284.505 975.651ZM321.672 1104.61L319.824 1105.37C350.077 1178.41 394.42 1244.78 450.321 1300.68L451.735 1299.26L453.15 1297.85C397.62 1242.32 353.572 1176.4 323.52 1103.84L321.672 1104.61ZM451.735 1299.26L450.321 1300.68C506.222 1356.58 572.586 1400.92 645.624 1431.17L646.39 1429.33L647.155 1427.48C574.602 1397.43 508.679 1353.38 453.15 1297.85L451.735 1299.26ZM646.39 1429.33L645.624 1431.17C687.527 1448.53 731.157 1461.05 775.668 1468.58L776.001 1466.6L776.334 1464.63C732.119 1457.16 688.78 1444.72 647.155 1427.48L646.39 1429.33ZM776.001 1466.6H778.001V75H776.001H774.001V1466.6H776.001ZM776.001 75V77H896.001V75V73H776.001V75ZM976.001 774.999V776.999H1467.44V774.999V772.999H976.001V774.999ZM1467.44 774.999L1469.41 774.662C1461.87 730.5 1449.4 687.212 1432.18 645.624L1430.33 646.39L1428.48 647.155C1445.59 688.466 1457.97 731.467 1465.46 775.336L1467.44 774.999ZM1430.33 646.39L1432.18 645.624C1401.92 572.586 1357.58 506.222 1301.68 450.321L1300.26 451.735L1298.85 453.15C1354.38 508.679 1398.43 574.602 1428.48 647.155L1430.33 646.39ZM1300.26 451.735L1301.68 450.321C1245.78 394.42 1179.41 350.077 1106.38 319.824L1105.61 321.672L1104.84 323.52C1177.4 353.572 1243.32 397.62 1298.85 453.15L1300.26 451.735ZM1105.61 321.672L1106.38 319.824C1064.47 302.468 1020.84 289.945 976.334 282.422L976.001 284.394L975.668 286.366C1019.88 293.839 1063.22 306.278 1104.84 323.52L1105.61 321.672ZM976.001 284.394H974.001V774.999H976.001H978.001V284.394H976.001Z" fill="url(#paint1_linear_747_1407)" mask="url(#path-2-inside-1_747_1407)"/>
</g>
<g opacity="0.6">
<path d="M1566.49 1279C1532.26 1337.52 1490.44 1391.92 1441.68 1440.68C1294.02 1588.35 1094.56 1672.33 886.006 1674.94C880.484 1675 876 1670.52 876 1665V1485C876 1479.48 880.482 1475.01 886.004 1474.92C1041.51 1472.32 1190.1 1409.42 1300.26 1299.26C1306.88 1292.65 1313.33 1285.89 1319.6 1279H1566.49ZM1666 874.999C1671.52 874.999 1676.01 879.483 1675.94 885.005C1674.94 965.155 1661.91 1043.96 1637.88 1119H1424.14C1456.68 1045.91 1474.56 966.405 1475.92 885.003C1476.01 879.481 1480.48 874.999 1486 874.999H1666Z" fill="url(#paint2_linear_747_1407)"/>
<path d="M76 874.999C76 980.056 96.6926 1084.09 136.896 1181.15C177.1 1278.21 236.027 1366.4 310.314 1440.68C384.601 1514.97 472.792 1573.9 569.853 1614.1C666.913 1654.31 770.942 1675 875.999 1675L875.999 1475C797.206 1475 719.185 1459.48 646.389 1429.33C573.594 1399.17 507.451 1354.98 451.735 1299.26C396.02 1243.55 351.825 1177.4 321.672 1104.61C291.519 1031.81 276 953.792 276 874.999H76Z" fill="#1A2A80"/>
<path d="M1676 874.999C1676 769.942 1655.31 665.913 1615.1 568.853C1574.9 471.792 1515.97 383.601 1441.69 309.314C1367.4 235.027 1279.21 176.1 1182.15 135.896C1085.09 95.6926 981.058 75 876.001 75L876.001 275C954.794 275 1032.82 290.519 1105.61 320.672C1178.41 350.825 1244.55 395.02 1300.26 450.735C1355.98 506.451 1400.18 572.594 1430.33 645.389C1460.48 718.185 1476 796.206 1476 874.999H1676Z" fill="#1A2A80"/>
<path d="M796.002 974.999C784.956 974.999 776.002 966.045 776.002 954.999V794.999C776.002 783.954 784.956 774.999 796.002 774.999H1596C1640.18 774.999 1676 810.816 1676 854.999V894.999C1676 939.182 1640.18 974.999 1596 974.999H796.002Z" fill="#7A85C1"/>
<path d="M776.002 75H896.002C940.185 75 976.002 110.817 976.002 155V1595C976.002 1639.18 940.184 1675 896.002 1675H856.002C811.819 1675 776.002 1639.18 776.002 1595V75Z" fill="#6260B6"/>
<path d="M532.977 776.431L532.6 896.43C532.461 940.612 496.532 976.317 452.349 976.178L156.002 975.248C111.819 975.11 76.1147 939.18 76.2534 894.997L76.6301 774.998L532.977 776.431Z" fill="#6260B6"/>
</g>
<defs>
<filter id="filter0_i_747_1407" x="0" y="0" width="1750" height="1750" filterUnits="userSpaceOnUse" color-interpolation-filters="sRGB">
<feFlood flood-opacity="0" result="BackgroundImageFix"/>
<feBlend mode="normal" in="SourceGraphic" in2="BackgroundImageFix" result="shape"/>
<feColorMatrix in="SourceAlpha" type="matrix" values="0 0 0 0 0 0 0 0 0 0 0 0 0 0 0 0 0 0 127 0" result="hardAlpha"/>
<feMorphology radius="23" operator="erode" in="SourceAlpha" result="effect1_innerShadow_747_1407"/>
<feOffset/>
<feGaussianBlur stdDeviation="7.25"/>
<feComposite in2="hardAlpha" operator="arithmetic" k2="-1" k3="1"/>
<feColorMatrix type="matrix" values="0 0 0 0 0.0378205 0 0 0 0 0 0 0 0 0 0.453846 0 0 0 1 0"/>
<feBlend mode="normal" in2="shape" result="effect1_innerShadow_747_1407"/>
</filter>
<filter id="filter1_d_747_1407" x="56" y="65" width="1640" height="1640" filterUnits="userSpaceOnUse" color-interpolation-filters="sRGB">
<feFlood flood-opacity="0" result="BackgroundImageFix"/>
<feColorMatrix in="SourceAlpha" type="matrix" values="0 0 0 0 0 0 0 0 0 0 0 0 0 0 0 0 0 0 127 0" result="hardAlpha"/>
<feOffset dy="10"/>
<feGaussianBlur stdDeviation="10"/>
<feComposite in2="hardAlpha" operator="out"/>
<feColorMatrix type="matrix" values="0 0 0 0 0.1325 0 0 0 0 0 0 0 0 0 0.611538 0 0 0 0.5 0"/>
<feBlend mode="normal" in2="BackgroundImageFix" result="effect1_dropShadow_747_1407"/>
<feBlend mode="normal" in="SourceGraphic" in2="effect1_dropShadow_747_1407" result="shape"/>
</filter>
<linearGradient id="paint0_linear_747_1407" x1="876" y1="1675" x2="876" y2="75" gradientUnits="userSpaceOnUse">
<stop stop-color="#2C005C"/>
<stop offset="1" stop-color="#3400C2"/>
</linearGradient>
<linearGradient id="paint1_linear_747_1407" x1="876" y1="75" x2="876" y2="1675" gradientUnits="userSpaceOnUse">
<stop stop-color="#0008A9"/>
<stop offset="1" stop-color="#000343"/>
</linearGradient>
<linearGradient id="paint2_linear_747_1407" x1="1275.97" y1="874.999" x2="1275.97" y2="1674.94" gradientUnits="userSpaceOnUse">
<stop offset="0.384615" stop-color="#B2B0E8"/>
<stop offset="0.408654" stop-color="#7A85C1"/>
</linearGradient>
</defs>
</svg>
